<svg xmlns="http://www.w3.org/2000/svg" xmlns:xlink="http://www.w3.org/1999/xlink" width="420" height="82.011" viewBox="0 0 420 82.011">
  <defs>
    <radialGradient id="radial-gradient" cx="0.678" cy="1" r="0.263" gradientTransform="translate(0 -138.894) scale(1 139.894)" gradientUnits="objectBoundingBox">
      <stop offset="0" stop-color="#dc3022"/>
      <stop offset="0.257" stop-color="#df4336"/>
      <stop offset="1" stop-color="#202032"/>
    </radialGradient>
  </defs>
  <g id="Group_87" data-name="Group 87" transform="translate(-144.363 -68.129)">
    <g id="g12066" transform="translate(146.195 95.235)">
      <path id="path12052" d="M26.232,17.981l-.9,2.057a18.273,18.273,0,0,1-9.2,2.339q-10.174,0-13.916-7.583a16.923,16.923,0,0,1-1.735-7.6A13.678,13.678,0,0,1,4.735-3.357Q9.081-7.41,16.6-7.41a25.285,25.285,0,0,1,9.336,1.795l.253.3A34.632,34.632,0,0,0,25.374,1.2l-.175.2h-1.15l-.195-.222a28.682,28.682,0,0,0-.214-3.388A8.755,8.755,0,0,0,16.6-5.051,9.3,9.3,0,0,0,9.178-1.945q-2.69,3.106-2.69,8.43,0,7.2,4.794,11.052a10.586,10.586,0,0,0,6.841,2.057,15.462,15.462,0,0,0,7.62-2.077Z" transform="translate(-0.486 8.096)" fill="#202032"/>
      <path id="path12054" d="M34.655,21.13l-.195.2q-.136,0-.741-.02-2.67-.1-3.333-.1-.994,0-3.157.121a5.719,5.719,0,0,0-.741-1.613l-4.833-8.35L19.492,7.96a5.553,5.553,0,0,0-1.15-1.23l.214-.686q.448.02.663.02a6.06,6.06,0,0,0,3-.625,5.3,5.3,0,0,0,1.832-1.976A6.48,6.48,0,0,0,24.891.095q0-3.408-2.456-4.6a8.1,8.1,0,0,0-3.411-.565,10.549,10.549,0,0,0-1.871.161q-.195,1.976-.195,6.736V12.377a46.841,46.841,0,0,0,.253,6.252.868.868,0,0,0,.663.746,20.734,20.734,0,0,0,2.28.2l.195.2V21.13l-.175.2q-1.949-.121-6-.121-4.19,0-6,.121l-.195-.182V19.779l.195-.2a20.733,20.733,0,0,0,2.28-.2.868.868,0,0,0,.663-.746,46.841,46.841,0,0,0,.253-6.252V1.708a46.841,46.841,0,0,0-.253-6.252.868.868,0,0,0-.663-.746,20.731,20.731,0,0,0-2.28-.2l-.195-.2V-7.065l.195-.182q1.91.121,6,.121,2.378,0,3.859-.06,2.943-.121,4.4-.121a14.417,14.417,0,0,1,4.95.625,4.7,4.7,0,0,1,2.845,2.864,7,7,0,0,1,.351,2.339q0,5.486-5.964,7.785Q25.592,8,26.684,9.735l3,4.78q2.651,4.235,3.528,4.82a2.211,2.211,0,0,0,1.247.3l.195.2Z" transform="translate(20.267 8.396)" fill="#202032"/>
      <path id="path12056" d="M27.992,21.94l-.175.2q-1.949-.121-6.022-.121-4.054,0-6,.121l-.175-.2V20.589l.195-.2a20.734,20.734,0,0,0,2.28-.2.868.868,0,0,0,.663-.746,46.841,46.841,0,0,0,.253-6.252V2.518a46.841,46.841,0,0,0-.253-6.252.868.868,0,0,0-.663-.746,20.731,20.731,0,0,0-2.28-.2l-.195-.2V-6.255l.195-.182q1.871.121,6,.121,4.112,0,5.983-.121l.195.182v1.371l-.195.2a20.733,20.733,0,0,0-2.28.2.868.868,0,0,0-.663.746A46.839,46.839,0,0,0,24.6,2.518V13.187a46.839,46.839,0,0,0,.253,6.252.868.868,0,0,0,.663.746,20.731,20.731,0,0,0,2.28.2l.195.2ZM21.795-7.586ZM21.795,23.594Z" transform="translate(41.449 7.586)" fill="#202032"/>
      <path id="path12058" d="M56.711,21.085l-.195.2q-1.93-.121-6-.121-4.171,0-6,.121l-.175-.182V19.734l.195-.2a20.732,20.732,0,0,0,2.28-.2.868.868,0,0,0,.663-.746,46.84,46.84,0,0,0,.253-6.252V-1.3L43.38,7.915q-.37.766-2.534,5.647L37.28,21.629H35.974q-1.013-2.5-2.748-6.313L30.5,9.327,25.391-1.665v14a46.839,46.839,0,0,0,.253,6.252.868.868,0,0,0,.663.746,20.732,20.732,0,0,0,2.28.2l.195.2v1.371l-.195.181q-2.241-.121-4.171-.121-2.241,0-4.5.121l-.195-.182V19.734l.195-.2a20.733,20.733,0,0,0,2.28-.2.868.868,0,0,0,.663-.746,46.84,46.84,0,0,0,.253-6.252V1.663a46.84,46.84,0,0,0-.253-6.252.868.868,0,0,0-.663-.746,20.731,20.731,0,0,0-2.28-.2l-.195-.2V-7.11l.195-.182q2.027.121,5.126.121,2.378,0,4.151-.121.643,1.533,1.832,4.316L32.271-.192l6.2,13.412,2.982-6.252L46.109-3.339q.819-1.835,1.6-3.953,2.2.121,2.962.121,3.82,0,5.847-.121l.195.182v1.392l-.195.182a20.733,20.733,0,0,0-2.28.2.868.868,0,0,0-.663.746,46.844,46.844,0,0,0-.253,6.252V12.332a46.844,46.844,0,0,0,.253,6.252.868.868,0,0,0,.663.746,20.732,20.732,0,0,0,2.28.2l.195.2Z" transform="translate(52.821 8.441)" fill="#202032"/>
      <path id="path12060" d="M50.477,12.193a9.776,9.776,0,0,1-1.832,5.869,9.618,9.618,0,0,1-4.19,3.328A14.476,14.476,0,0,1,38.783,22.4a18.013,18.013,0,0,1-8.03-1.936l-.234-.444a30.5,30.5,0,0,0,.546-6.595l.195-.2h1.247l.175.2v.464a25.036,25.036,0,0,0,.234,2.985,5.665,5.665,0,0,0,2.514,2.218,8.531,8.531,0,0,0,3.937.968q3.859,0,5.34-2.783a6.246,6.246,0,0,0,.76-2.965,3.852,3.852,0,0,0-2.085-3.691,11.471,11.471,0,0,0-3.333-.908q-5.2-.827-6.841-2.077-2.475-1.9-2.475-5.869a8.5,8.5,0,0,1,2.69-6.595Q36.269-7.41,41.337-7.41A15.514,15.514,0,0,1,48.7-5.9l.136.484A36.107,36.107,0,0,0,48.275.354l-.214.2H46.833l-.195-.2a25.292,25.292,0,0,0-.195-3.146,4.621,4.621,0,0,0-2.1-1.613,8.367,8.367,0,0,0-3.333-.686,5.783,5.783,0,0,0-4.132,1.432A4.6,4.6,0,0,0,35.451-.17a3.817,3.817,0,0,0,1.618,3.408,15.324,15.324,0,0,0,4.97,1.351q.409.06,2.28.4a10.976,10.976,0,0,1,2.124.585,5.907,5.907,0,0,1,2.962,2.339,7.924,7.924,0,0,1,1.072,4.276Z" transform="translate(82.755 8.096)" fill="#202032"/>
      <path id="path12062" d="M66.435,7.116q0,7.442-4.19,11.677-4.073,4.114-11.129,4.114-6.665,0-10.466-3.872-3.8-3.892-3.8-10.81,0-9.7,7.153-13.432A17.2,17.2,0,0,1,52.013-6.9q6.8,0,10.583,3.691Q66.435.542,66.435,7.116Zm-6,1.049q0-5.849-2.28-9.277a7.442,7.442,0,0,0-6.646-3.449A7.448,7.448,0,0,0,43.827.824a18.528,18.528,0,0,0-.974,6.192q0,6.232,2.222,9.842a7.558,7.558,0,0,0,6.88,3.731q5.555,0,7.465-5.667a21.07,21.07,0,0,0,1.013-6.756ZM51.526,23.594ZM51.526-7.586Z" transform="translate(100.299 7.586)" fill="#202032"/>
      <path id="path12064" d="M75.883-5.739l-.214.2a20.733,20.733,0,0,0-2.28.2.868.868,0,0,0-.663.746,46.841,46.841,0,0,0-.253,6.252V9.851q0,9.055.253,11.8l-.253.181q-2.2-.383-3.333-.545Q63.916,15.216,51.306-.858v13.19a46.844,46.844,0,0,0,.253,6.252.868.868,0,0,0,.663.746,20.733,20.733,0,0,0,2.28.2l.195.2V21.1l-.2.182q-2.241-.121-4.17-.121-2.241,0-4.5.121l-.195-.182V19.734l.195-.2a20.732,20.732,0,0,0,2.28-.2.868.868,0,0,0,.663-.746,46.841,46.841,0,0,0,.253-6.252V1.663a46.841,46.841,0,0,0-.253-6.252.868.868,0,0,0-.663-.746,20.73,20.73,0,0,0-2.28-.2l-.195-.2V-7.11l.195-.182q1.852.121,3.528.121,2.631,0,4.366-.121Q60.74,2.389,70.211,13.461V1.663a46.839,46.839,0,0,0-.253-6.252.868.868,0,0,0-.663-.746,20.73,20.73,0,0,0-2.28-.2l-.195-.2V-7.11l.195-.182q2.183.121,4.151.121,2.514,0,4.522-.121l.195.182Z" transform="translate(124.647 8.441)" fill="#202032"/>
    </g>
    <g id="g12084" transform="translate(355.198 94.888)">
      <path id="path12068" d="M29.664,11.326l-.195.222q-1.208.3-1.4.847a21.23,21.23,0,0,0-.195,4.074q0,1.714.156,3.388A32.839,32.839,0,0,1,16.216,22.4q-6.977,0-11.3-4.034Q.6,14.311.6,7.332q0-9.1,7.62-12.968A19.5,19.5,0,0,1,17.093-7.41a29.218,29.218,0,0,1,6.315.706,19.087,19.087,0,0,1,4.151,1.331l.175.363A35.327,35.327,0,0,0,26.9,1.161l-.214.2H25.512l-.195-.2q0-.383-.078-1.573a11.438,11.438,0,0,0-.195-1.694,6.489,6.489,0,0,0-2.923-2.057,12.807,12.807,0,0,0-4.794-.887q-6.9,0-9.53,5.768A14.8,14.8,0,0,0,6.588,6.889a14.642,14.642,0,0,0,2.884,9.3,9.467,9.467,0,0,0,7.815,3.832,11.365,11.365,0,0,0,4.931-1.129q.136-1.412.136-3.872a11.748,11.748,0,0,0-.136-2.42q-.117-.323-.741-.464-.526-.121-3.294-.3l-.214-.2V10.358l.214-.2q2.826.081,5.925.061l5.36-.061.195.2Z" transform="translate(-0.605 7.41)" fill="#dc3022"/>
      <path id="path12070" d="M35.828,21.13l-.187.024c-.091,0-.369.026-.772.012-1.78-.067-2.868.044-3.309.044q-.994,0-3.157.121a5.72,5.72,0,0,0-.741-1.613l-4.833-8.35L20.665,7.96a5.553,5.553,0,0,0-1.15-1.23l.214-.686q.448.02.663.02a6.06,6.06,0,0,0,3-.625,5.3,5.3,0,0,0,1.832-1.976A6.48,6.48,0,0,0,26.064.095q0-3.408-2.456-4.6A8.1,8.1,0,0,0,20.2-5.068a10.549,10.549,0,0,0-1.871.161q-.195,1.976-.195,6.736V12.377a46.84,46.84,0,0,0,.253,6.252.868.868,0,0,0,.663.746,20.733,20.733,0,0,0,2.28.2l.195.2V21.13l-.175.2q-1.949-.121-6-.121-4.19,0-6,.121l-.195-.182V19.779l.195-.2a20.734,20.734,0,0,0,2.28-.2.868.868,0,0,0,.663-.746,46.829,46.829,0,0,0,.253-6.252V1.708a46.839,46.839,0,0,0-.253-6.252.868.868,0,0,0-.663-.746,20.731,20.731,0,0,0-2.28-.2l-.195-.2V-7.065l.195-.182q1.91.121,6,.121,2.378,0,3.859-.06,2.943-.121,4.4-.121a14.417,14.417,0,0,1,4.95.625A4.7,4.7,0,0,1,31.4-3.818a7,7,0,0,1,.351,2.339q0,5.486-5.964,7.785Q26.765,8,27.857,9.735l3,4.78c1.767,2.824,2.666,3.942,3.251,4.332a2.211,2.211,0,0,0,1.247.3l.195.2Z" transform="translate(23.07 7.71)" fill="#dc3022"/>
      <path id="path12072" d="M53.549-5.739l-.195.2q-2.3,0-2.592,1.271A21.592,21.592,0,0,0,50.528-1.2Q50.47.554,50.47,3.861v6.212q0,5.99-2.28,8.551-3.021,3.388-8.614,3.388-5.106,0-7.971-1.755a6.934,6.934,0,0,1-3.157-4.235q-.468-1.755-.468-9.156v-5.2a27.8,27.8,0,0,0-.173-4.841.868.868,0,0,0-.663-.746,18.956,18.956,0,0,0-2.273-.214l-.2-.19-.08-2.762.195-.065c1.247.081,3.248-.016,6-.016q4.21,0,5.983-.121l.195.2v1.351l-.195.2a20.734,20.734,0,0,0-2.28.2.868.868,0,0,0-.663.746,46.838,46.838,0,0,0-.253,6.252V5.818q0,7.623.663,9.338,1.325,3.388,6.529,3.388a7.627,7.627,0,0,0,5.321-1.734,4.876,4.876,0,0,0,1.247-1.674,10.259,10.259,0,0,0,.546-2.622,31.721,31.721,0,0,0,.175-3.348V4.971q0-5.284-.039-7.22a9.373,9.373,0,0,0-.234-2.36,1.156,1.156,0,0,0-.682-.625,10.705,10.705,0,0,0-2.4-.3l-.195-.2V-7.09l.195-.2q1.7.121,3.489.121,1.345,0,5.165-.121l.195.2Z" transform="translate(65.864 7.755)" fill="#dc3022"/>
      <path id="path12074" d="M63.244-5.739l-.214.2a20.733,20.733,0,0,0-2.28.2.868.868,0,0,0-.663.746,46.843,46.843,0,0,0-.253,6.252V9.851q0,9.055.253,11.8l-.253.182q-2.2-.383-3.333-.545Q51.276,15.216,38.667-.858v13.19a46.84,46.84,0,0,0,.253,6.252.868.868,0,0,0,.663.746,20.732,20.732,0,0,0,2.28.2l.195.2V21.1l-.2.182q-2.241-.121-4.171-.121-2.241,0-4.5.121l-.195-.182V19.734l.195-.2a20.732,20.732,0,0,0,2.28-.2.868.868,0,0,0,.663-.746,46.839,46.839,0,0,0,.253-6.252V1.663a46.839,46.839,0,0,0-.253-6.252.868.868,0,0,0-.663-.746,20.731,20.731,0,0,0-2.28-.2l-.195-.2V-7.11l.195-.182q1.852.121,3.528.121,2.631,0,4.366-.121Q48.1,2.389,57.571,13.461V1.663a46.84,46.84,0,0,0-.253-6.252.868.868,0,0,0-.663-.746,20.73,20.73,0,0,0-2.28-.2l-.195-.2V-7.11l.195-.182q2.183.121,4.151.121,2.514,0,4.522-.121l.195.182Z" transform="translate(89.166 7.755)" fill="#dc3022"/>
      <path id="path12076" d="M71.779,5.358a15.731,15.731,0,0,1-4.307,11.334A14.442,14.442,0,0,1,62.366,20.1a18.829,18.829,0,0,1-7.5,1.23l-6.88-.121q-2.807-.04-4.639.121l-.2-.2v-.565l.1-.242a6.829,6.829,0,0,0,1.559-1.19,10.842,10.842,0,0,0,.214-2.682l.058-4.518V1.708a46.842,46.842,0,0,0-.253-6.252.868.868,0,0,0-.663-.746,20.73,20.73,0,0,0-2.28-.2l-.195-.2V-7.065l.195-.182q2.066.121,3.937.121,4.541,0,8.186-.121,1.813-.061,3.645-.061a20.008,20.008,0,0,1,7.776,1.19A10,10,0,0,1,70.064-2a14.232,14.232,0,0,1,1.715,7.361ZM65.8,6.327q0-5.587-2.612-8.592a7.343,7.343,0,0,0-3.411-2.218,19.15,19.15,0,0,0-5.438-.605,22.179,22.179,0,0,0-3.469.262Q50.672-2.568,50.672,6.1l.039,8.813a36.742,36.742,0,0,0,.156,3.913,21.563,21.563,0,0,0,3.508.282,13.349,13.349,0,0,0,6.12-1.17,8.892,8.892,0,0,0,3.839-4.316,17.159,17.159,0,0,0,1.462-7.3Z" transform="translate(113.256 7.71)" fill="#dc3022"/>
      <path id="path12078" d="M70.729,12.193A9.776,9.776,0,0,1,68.9,18.062a9.618,9.618,0,0,1-4.19,3.328A14.476,14.476,0,0,1,59.035,22.4a18.013,18.013,0,0,1-8.03-1.936l-.234-.444a30.5,30.5,0,0,0,.546-6.595l.195-.2H52.76l.175.2v.464a25.031,25.031,0,0,0,.234,2.985,5.665,5.665,0,0,0,2.514,2.218,8.531,8.531,0,0,0,3.937.968q3.859,0,5.34-2.783a6.245,6.245,0,0,0,.76-2.965,3.852,3.852,0,0,0-2.085-3.691A11.471,11.471,0,0,0,60.3,9.712q-5.2-.827-6.841-2.077-2.475-1.9-2.475-5.869a8.5,8.5,0,0,1,2.69-6.595Q56.521-7.41,61.588-7.41A15.514,15.514,0,0,1,68.956-5.9l.136.484A36.1,36.1,0,0,0,68.527.354l-.214.2H67.085l-.195-.2a25.3,25.3,0,0,0-.195-3.146,4.621,4.621,0,0,0-2.1-1.613,8.367,8.367,0,0,0-3.333-.686,5.782,5.782,0,0,0-4.132,1.432A4.6,4.6,0,0,0,55.7-.17,3.817,3.817,0,0,0,57.32,3.238,15.323,15.323,0,0,0,62.29,4.59q.409.06,2.28.4a10.977,10.977,0,0,1,2.124.585,5.907,5.907,0,0,1,2.962,2.339,7.924,7.924,0,0,1,1.072,4.276Z" transform="translate(138.435 7.41)" fill="#dc3022"/>
      <path id="path12080" d="M119.469,177.522l-.195.2v1.351l.195.2a20.735,20.735,0,0,1,2.28.2.868.868,0,0,1,.663.746,46.838,46.838,0,0,1,.253,6.252v4.155c0,1.788.144,3.334.09,4.635l3.847-.016c.023-1.057.035-2.239.035-3.57v-5.2a27.844,27.844,0,0,1,.174-4.842.946.946,0,0,1,.694-.783,14.561,14.561,0,0,1,2.253-.165l.191-.2.08-2.761-.195-.065c-1.247.081-3.252-.057-6.007-.057-2.807,0-3.176,0-4.358-.081Z" transform="translate(-60.088 -177.077)" fill="#dc3022"/>
      <path id="path12082" d="M124.307,177.522l-.195.2v1.352l.195.2a20.334,20.334,0,0,1,2.28.2.867.867,0,0,1,.663.745,46.9,46.9,0,0,1,.253,6.252v4.154c0,.15,0,.294,0,.44v1.585c0,.017,0,.033,0,.049v4.155a46.863,46.863,0,0,1-.253,6.251.867.867,0,0,1-.663.747,4.62,4.62,0,0,1-.561.074h-8.5V206h37.74l.18-.18v-1.722l-.168-.163H134.188a12.432,12.432,0,0,1-1.845-.149.949.949,0,0,1-.695-.783,16.673,16.673,0,0,1-.15-2.232V183.22a10.388,10.388,0,0,1,.15-1.586.947.947,0,0,1,.695-.782,12.989,12.989,0,0,1,1.947-.154h26.648c.037-1.009.013-2.08-.033-3.029l-32.24-.067C125.859,177.6,125.489,177.6,124.307,177.522Z" transform="translate(-64.926 -177.077)" fill="#dc3022"/>
    </g>
    <path id="path12086" d="M0,0H418.109" transform="translate(144.363 131.526)" fill="none"/>
    <path id="path12088" d="M144.845,84.248h419.87v2.065H144.845Z" transform="translate(-0.482 46.789)" fill="url(#radial-gradient)"/>
    <path id="path12090" d="M144.845,85.306h419.87v2.065H144.845Z" transform="translate(-0.482 49.861)" fill="#202032"/>
    <path id="path12092" d="M-.265-.112V81.9h2V-.112Z" transform="translate(433.013 68.241)" fill="#dc3022"/>
    <path id="path12094" d="M-.794,0V82.011H5.194V0Z" transform="translate(437.533 68.129)" fill="#dc3022"/>
  </g>
</svg>
