<?xml version="1.0" encoding="UTF-8" standalone="no"?>
<!-- Created with Inkscape (http://www.inkscape.org/) -->

<svg
   width="210mm"
   height="297mm"
   viewBox="0 0 210 297"
   version="1.1"
   id="svg5"
   inkscape:version="1.1.2 (b8e25be833, 2022-02-05)"
   sodipodi:docname="logo.svg"
   xmlns:inkscape="http://www.inkscape.org/namespaces/inkscape"
   xmlns:sodipodi="http://sodipodi.sourceforge.net/DTD/sodipodi-0.dtd"
   xmlns:xlink="http://www.w3.org/1999/xlink"
   xmlns="http://www.w3.org/2000/svg"
   xmlns:svg="http://www.w3.org/2000/svg">
  <sodipodi:namedview
     id="namedview7"
     pagecolor="#ffffff"
     bordercolor="#666666"
     borderopacity="1.0"
     inkscape:pageshadow="2"
     inkscape:pageopacity="0.0"
     inkscape:pagecheckerboard="0"
     inkscape:document-units="mm"
     showgrid="false"
     showguides="true"
     inkscape:guide-bbox="true"
     inkscape:zoom="1.4142136"
     inkscape:cx="-9.1923881"
     inkscape:cy="564.27121"
     inkscape:window-width="3840"
     inkscape:window-height="2054"
     inkscape:window-x="-11"
     inkscape:window-y="-11"
     inkscape:window-maximized="1"
     inkscape:current-layer="g12144">
    <sodipodi:guide
       position="125.72745,126.44637"
       orientation="0,-1"
       id="guide1591" />
    <sodipodi:guide
       position="120.90077,119.47616"
       orientation="0,-1"
       id="guide1669" />
    <sodipodi:guide
       position="125.2029,105.43266"
       orientation="0,-1"
       id="guide7923" />
    <sodipodi:guide
       position="159.04166,114.56695"
       orientation="1,0"
       id="guide7931" />
    <sodipodi:guide
       position="48.162434,115.71908"
       orientation="1,0"
       id="guide8028" />
  </sodipodi:namedview>
  <defs
     id="defs2">
    <radialGradient
       id="radial-gradient"
       cx="19.661999"
       cy="29"
       r="7.6270003"
       gradientTransform="scale(14.5,0.06896552)"
       gradientUnits="userSpaceOnUse"
       fx="19.661999"
       fy="29">
      <stop
         offset="0"
         stop-color="#dc3022"
         id="stop824" />
      <stop
         offset="0.257"
         stop-color="#df4336"
         id="stop826" />
      <stop
         offset="1"
         stop-color="#f8f8f9"
         id="stop828" />
    </radialGradient>
    <radialGradient
       inkscape:collect="always"
       xlink:href="#radial-gradient"
       id="radialGradient1022"
       gradientUnits="userSpaceOnUse"
       gradientTransform="matrix(-0.07106325,-14.499825,17.718753,-0.08748613,315.9313,608.08904)"
       cx="19.693401"
       cy="29.385096"
       fx="19.693401"
       fy="29.385096"
       r="7.6270003" />
    <radialGradient
       inkscape:collect="always"
       xlink:href="#radial-gradient"
       id="radialGradient12146"
       gradientUnits="userSpaceOnUse"
       gradientTransform="matrix(-0.07106325,-14.499825,17.718753,-0.08748613,315.9313,608.08904)"
       cx="19.693401"
       cy="29.385096"
       fx="19.693401"
       fy="29.385096"
       r="7.6270003" />
  </defs>
  <g
     inkscape:label="Layer 1"
     inkscape:groupmode="layer"
     id="layer1">
    <rect
       style="fill:#000000;stroke:#ff00ff;stroke-width:4.97755;stroke-opacity:0"
       id="rect894"
       width="153.95973"
       height="56.772655"
       x="26.844343"
       y="-210.74379"
       transform="scale(1,-1)" />
    <g
       id="g1020"
       data-name="Group 87"
       transform="matrix(0.26458333,0,0,0.26458333,-96.684346,102.42343)">
      <g
         aria-label="CRIMSON"
         transform="translate(545.629,312.422)"
         id="text998"
         style="font-weight:700;font-size:40px;font-family:PalatinoLinotype-Bold, 'Palatino Linotype';fill:#f8f8f9">
        <path
           d="m 27.636719,-3.4179688 -0.898438,1.9921876 q -4.121094,2.26562495 -9.21875,2.26562495 -10.1953123,0 -13.9453122,-7.34374995 -1.7382813,-3.3984376 -1.7382813,-7.3632818 0,-6.406249 4.2578125,-10.214843 4.355469,-3.925781 11.894531,-3.925781 4.785156,0 9.355469,1.738281 l 0.253906,0.292969 q -0.664062,2.695312 -0.820312,6.308593 l -0.175782,0.195313 H 25.449219 L 25.253906,-19.6875 q -0.05859,-2.363281 -0.214844,-3.28125 -2.441406,-2.753906 -7.050781,-2.753906 -4.746093,0 -7.441406,3.007812 -2.6953125,3.007813 -2.6953125,8.164063 0,6.972656 4.8046875,10.7031247 2.558594,1.9921876 6.855469,1.9921876 3.90625,0 7.636718,-2.0117188 z"
           id="path1024" />
        <path
           d="m 56.875,-0.078125 -0.195313,0.1953125 q -0.136718,0 -0.742187,-0.01953125 Q 53.261719,0 52.597656,0 q -0.996094,0 -3.164062,0.1171875 -0.07813,-0.46875 -0.742188,-1.5625 l -4.84375,-8.0859375 -2.167969,-3.300781 q -0.410156,-0.605469 -1.152343,-1.191407 l 0.214843,-0.664062 q 0.449219,0.01953 0.664063,0.01953 1.914062,0 3.007812,-0.605469 0.996094,-0.546875 1.835938,-1.914062 0.839844,-1.367187 0.839844,-3.261719 0,-3.300781 -2.460938,-4.453125 -1.171875,-0.546875 -3.417969,-0.546875 -0.976562,0 -1.875,0.15625 -0.195312,1.914063 -0.195312,6.523438 v 10.2148435 q 0,4.6484375 0.253906,6.0546875 0.09766,0.5664063 0.664063,0.7226563 0.292968,0.078125 2.285156,0.1953125 l 0.195312,0.1953125 V -0.078125 L 42.363281,0.1171875 Q 40.410156,0 36.347656,0 32.148437,0 30.332031,0.1171875 L 30.136719,-0.05859375 V -1.3867187 l 0.195312,-0.1953125 q 1.992188,-0.1171875 2.285156,-0.1953125 0.566407,-0.15625 0.664063,-0.7226563 0.253906,-1.40625 0.253906,-6.0546875 V -18.886719 q 0,-4.648437 -0.253906,-6.054687 -0.09766,-0.566406 -0.664063,-0.722656 -0.292968,-0.07813 -2.285156,-0.195313 l -0.195312,-0.195312 v -1.328125 l 0.195312,-0.175782 q 1.914063,0.117188 6.015625,0.117188 2.382813,0 3.867188,-0.05859 2.949218,-0.117187 4.414062,-0.117187 3.378906,0 4.960938,0.605468 2.128906,0.820313 2.851562,2.773438 0.351563,0.957031 0.351563,2.265625 0,5.3125 -5.976563,7.539062 0.976563,1.640625 2.070313,3.320313 l 3.007812,4.628906 q 2.65625,4.1015625 3.535156,4.6679688 0.449219,0.2929687 1.25,0.2929687 L 56.875,-1.328125 Z"
           id="path1026" />
        <path
           d="M 71.425781,-0.078125 71.25,0.1171875 Q 69.296875,0 65.214844,0 61.152344,0 59.199219,0.1171875 L 59.023437,-0.078125 v -1.3085937 l 0.195313,-0.1953125 q 1.992187,-0.1171875 2.285156,-0.1953125 0.566406,-0.15625 0.664063,-0.7226563 0.253906,-1.40625 0.253906,-6.0546875 V -18.886719 q 0,-4.648437 -0.253906,-6.054687 -0.09766,-0.566406 -0.664063,-0.722656 -0.292969,-0.07813 -2.285156,-0.195313 l -0.195313,-0.195312 v -1.328125 l 0.195313,-0.175782 q 1.875,0.117188 6.015625,0.117188 4.121094,0 5.996094,-0.117188 l 0.195312,0.175782 v 1.328125 l -0.195312,0.195312 q -1.992188,0.117188 -2.285157,0.195313 -0.566406,0.15625 -0.664062,0.722656 -0.253906,1.40625 -0.253906,6.054687 v 10.3320315 q 0,4.6484375 0.253906,6.0546875 0.09766,0.5664063 0.664062,0.7226563 0.292969,0.078125 2.285157,0.1953125 l 0.195312,0.1953125 z m -6.210937,-28.59375 z m 0,30.1953125 z"
           id="path1028" />
        <path
           d="m 111.60156,-0.078125 -0.19531,0.1953125 Q 109.47266,0 105.39063,0 101.21094,0 99.375,0.1171875 L 99.199219,-0.05859375 V -1.3867187 l 0.195312,-0.1953125 q 1.992189,-0.1171875 2.285159,-0.1953125 0.5664,-0.15625 0.66406,-0.7226563 0.25391,-1.40625 0.25391,-6.0546875 V -21.757812 l -4.355473,8.925781 q -0.371093,0.742187 -2.539062,5.4687498 L 92.128906,0.44921875 H 90.820312 Q 89.804687,-1.9726562 88.066406,-5.6640625 l -2.734375,-5.8007815 -5.117187,-10.644531 v 13.5546875 q 0,4.6484375 0.253906,6.0546875 0.09766,0.5664063 0.664062,0.7226563 0.292969,0.078125 2.285157,0.1953125 l 0.195312,0.1953125 v 1.32812495 L 83.417969,0.1171875 Q 81.171875,0 79.238281,0 76.992187,0 74.726562,0.1171875 L 74.53125,-0.05859375 V -1.3867187 l 0.195312,-0.1953125 q 1.992188,-0.1171875 2.285157,-0.1953125 0.566406,-0.15625 0.664062,-0.7226563 0.253906,-1.40625 0.253906,-6.0546875 V -18.886719 q 0,-4.648437 -0.253906,-6.054687 -0.09766,-0.566406 -0.664062,-0.722656 -0.292969,-0.07813 -2.285157,-0.195313 l -0.195312,-0.195312 v -1.328125 l 0.195312,-0.175782 q 2.03125,0.117188 5.136719,0.117188 2.382813,0 4.160156,-0.117188 0.644532,1.484375 1.835938,4.179688 l 1.25,2.695312 6.210937,12.9882815 2.988282,-6.0546875 4.667966,-9.980469 q 0.82032,-1.777343 1.60157,-3.828125 2.20703,0.117188 2.96875,0.117188 3.82812,0 5.85937,-0.117188 l 0.19531,0.175782 v 1.347656 l -0.19531,0.175781 q -1.99219,0.117188 -2.28516,0.195313 -0.5664,0.15625 -0.66406,0.722656 -0.2539,1.40625 -0.2539,6.054687 v 10.3320315 q 0,4.6484375 0.2539,6.0546875 0.0977,0.5664063 0.66406,0.7226563 0.29297,0.078125 2.28516,0.1953125 l 0.19531,0.1953125 z"
           id="path1030" />
        <path
           d="m 135.35156,-9.0234375 q 0,3.2226563 -1.83594,5.6835937 -1.60156,2.1679688 -4.19921,3.2226563 -2.38282,0.9765625 -5.6836,0.9765625 -4.10156,0 -8.04687,-1.875 l -0.23438,-0.4296875 q 0.54688,-2.2460938 0.54688,-6.3867187 l 0.19531,-0.1953126 h 1.25 l 0.17578,0.1953126 v 0.4492187 q 0,1.09375 0.23438,2.890625 0.70312,1.25 2.51953,2.1484375 1.89453,0.9375 3.94531,0.9375 3.86719,0 5.35156,-2.6953125 0.76172,-1.3867187 0.76172,-2.8710937 0,-2.5000001 -2.08984,-3.5742188 -1.03516,-0.527344 -3.33985,-0.878906 -5.21484,-0.800782 -6.85546,-2.011719 -2.48047,-1.835938 -2.48047,-5.683594 0,-4.003906 2.69531,-6.386718 2.85156,-2.5 7.92969,-2.5 4.57031,0 7.38281,1.464843 l 0.13672,0.46875 q -0.46875,2.324219 -0.56641,5.585938 l -0.21484,0.195312 h -1.23047 l -0.19531,-0.195312 q -0.0586,-2.34375 -0.19532,-3.046875 -0.60547,-0.917969 -2.10937,-1.5625 -1.60156,-0.664063 -3.33984,-0.664063 -2.61719,0 -4.14063,1.386719 -1.42578,1.308594 -1.42578,3.378906 0,2.246094 1.62109,3.300782 1.05469,0.683593 4.98047,1.308593 0.41016,0.05859 2.28516,0.390625 1.15234,0.195313 2.1289,0.566406 1.97266,0.742188 2.96875,2.265625 1.07422,1.660157 1.07422,4.1406255 z"
           id="path1032" />
        <path
           d="m 168.92578,-14.433594 q 0,7.2070315 -4.19922,11.308594 -4.08203,3.984375 -11.15234,3.984375 -6.67969,0 -10.48828,-3.75 -3.8086,-3.7695312 -3.8086,-10.46875 0,-9.394531 7.16797,-13.007812 3.26172,-1.640625 8.02735,-1.640625 6.8164,0 10.60546,3.574218 3.84766,3.632813 3.84766,10 z m -6.01562,1.015625 q 0,-5.664062 -2.28516,-8.984375 -2.26563,-3.339843 -6.66016,-3.339843 -5.80078,0 -7.69531,5.214843 -0.97656,2.675782 -0.97656,5.996094 0,6.0351562 2.22656,9.53125 2.30469,3.6132813 6.89453,3.6132813 5.56641,0 7.48047,-5.4882813 1.01563,-2.9101563 1.01563,-6.542969 z m -8.92579,14.9414065 z m 0,-30.1953125 z"
           id="path1034" />
        <path
           d="m 202.79297,-26.054687 -0.21485,0.195312 q -1.99218,0.117188 -2.28515,0.195313 -0.56641,0.15625 -0.66406,0.722656 -0.25391,1.40625 -0.25391,6.054687 v 7.929688 q 0,8.769531 0.25391,11.425781 L 199.375,0.64453125 Q 197.16797,0.2734375 196.03516,0.1171875 190.80078,-5.7617187 178.16406,-21.328125 v 12.7734375 q 0,4.6484375 0.25391,6.0546875 0.0977,0.5664063 0.66406,0.7226563 0.29297,0.078125 2.28516,0.1953125 l 0.19531,0.1953125 v 1.32812495 L 181.36719,0.1171875 Q 179.12109,0 177.1875,0 q -2.24609,0 -4.51172,0.1171875 l -0.19531,-0.17578125 V -1.3867187 l 0.19531,-0.1953125 q 1.99219,-0.1171875 2.28516,-0.1953125 0.5664,-0.15625 0.66406,-0.7226563 0.25391,-1.40625 0.25391,-6.0546875 V -18.886719 q 0,-4.648437 -0.25391,-6.054687 -0.0977,-0.566406 -0.66406,-0.722656 -0.29297,-0.07813 -2.28516,-0.195313 l -0.19531,-0.195312 v -1.328125 l 0.19531,-0.175782 q 1.85547,0.117188 3.53516,0.117188 2.63672,0 4.375,-0.117188 7.03125,9.375 16.52343,20.0976565 V -18.886719 q 0,-4.648437 -0.2539,-6.054687 -0.0977,-0.566406 -0.66406,-0.722656 -0.29297,-0.07813 -2.28516,-0.195313 l -0.19531,-0.195312 v -1.328125 l 0.19531,-0.175782 q 2.1875,0.117188 4.16016,0.117188 2.51953,0 4.53125,-0.117188 l 0.19531,0.175782 z"
           id="path1036" />
      </g>
      <g
         aria-label="GR   UNDS"
         transform="translate(754.629,311.422)"
         id="text1002"
         style="font-weight:700;font-size:40px;font-family:PalatinoLinotype-Bold, 'Palatino Linotype';fill:#dc3022">
        <path
           d="m 31.40625,-9.8632813 -0.195313,0.2148438 Q 30,-9.3554688 29.804687,-8.828125 q -0.195312,0.5078125 -0.195312,3.9453125 0,1.6601562 0.15625,3.28125 -6.523438,2.4609375 -11.835938,2.4609375 -6.992187,0 -11.3281245,-3.90625 -4.3164062,-3.9257812 -4.3164062,-10.683594 0,-8.808593 7.6367187,-12.558593 3.496094,-1.71875 8.886719,-1.71875 3.125,0 6.328125,0.683593 2.636718,0.566407 4.160156,1.289063 l 0.175781,0.351562 q -0.507812,1.71875 -0.839844,5.976563 l -0.214843,0.195312 h -1.171875 l -0.195313,-0.195312 q 0,-0.371094 -0.07813,-1.523438 -0.07813,-1.171875 -0.195312,-1.640625 -0.859375,-1.171875 -2.929688,-1.992187 -2.226562,-0.859375 -4.804687,-0.859375 -6.914063,0 -9.5507815,5.585937 -1.2109375,2.578125 -1.2109375,5.976563 0,5.4296872 2.890625,9.003906 3.007813,3.7109375 7.832031,3.7109375 2.558594,0 4.941406,-1.09375 0.136719,-1.3671875 0.136719,-3.75 0,-1.9335938 -0.136719,-2.34375 -0.117187,-0.3125 -0.742187,-0.4492188 Q 22.675781,-9.1992188 19.902344,-9.375 L 19.6875,-9.5703125 v -1.2304685 l 0.214844,-0.195313 q 2.832031,0.07813 5.9375,0.05859 1.796875,-0.01953 5.371093,-0.05859 l 0.195313,0.195313 z"
           id="path1039" />
        <path
           d="m 61.308594,-0.078125 -0.1875,0.0234375 c -0.09115,0 -0.369792,0.02473958 -0.773438,0.01171875 C 58.563802,-0.10807292 57.473958,0 57.03125,0 56.367187,0 55.3125,0.0390625 53.867187,0.1171875 53.8151,-0.1953125 53.567705,-0.71614583 53.125,-1.4453125 L 48.28125,-9.53125 46.113281,-12.832031 c -0.273437,-0.403646 -0.657552,-0.800782 -1.152344,-1.191407 l 0.214844,-0.664062 c 0.299479,0.01302 0.520834,0.01953 0.664063,0.01953 1.276041,0 2.278645,-0.201823 3.007812,-0.605469 0.664063,-0.364583 1.276042,-1.002604 1.835938,-1.914062 0.559895,-0.911458 0.839843,-1.998698 0.839843,-3.261719 0,-2.200521 -0.820312,-3.684896 -2.460937,-4.453125 -0.78125,-0.364583 -1.920573,-0.546875 -3.417969,-0.546875 -0.651041,0 -1.276041,0.05208 -1.875,0.15625 -0.130208,1.276042 -0.195312,3.450521 -0.195312,6.523438 v 10.2148435 c 0,3.0989583 0.08463,5.1171875 0.253906,6.0546875 0.06511,0.3776042 0.286461,0.6184896 0.664062,0.7226563 0.195313,0.052083 0.957032,0.1171875 2.285157,0.1953125 l 0.195312,0.1953125 V -0.078125 L 46.796875,0.1171875 C 45.494792,0.0390625 43.489583,0 40.78125,0 37.981771,0 35.976562,0.0390625 34.765625,0.1171875 L 34.570312,-0.05859375 V -1.3867187 l 0.195313,-0.1953125 c 1.328125,-0.078125 2.089843,-0.1432292 2.285156,-0.1953125 C 37.428385,-1.8815104 37.649739,-2.1223958 37.714844,-2.5 37.884115,-3.4375 37.96875,-5.4557292 37.96875,-8.5546875 V -18.886719 c 0,-3.098958 -0.08463,-5.117187 -0.253906,-6.054687 -0.06511,-0.377604 -0.286461,-0.618489 -0.664063,-0.722656 -0.195313,-0.05209 -0.957031,-0.117191 -2.285156,-0.195313 l -0.195313,-0.195312 v -1.328125 l 0.195313,-0.175782 c 1.276041,0.07813 3.28125,0.117188 6.015625,0.117188 1.588541,0 2.877604,-0.01953 3.867187,-0.05859 1.966146,-0.07813 3.4375,-0.117187 4.414063,-0.117187 2.252604,0 3.90625,0.201823 4.960937,0.605468 1.419271,0.546875 2.369792,1.471355 2.851563,2.773438 0.234375,0.638021 0.351562,1.393229 0.351562,2.265625 0,3.541667 -1.992187,6.054687 -5.976562,7.539062 0.651041,1.09375 1.341145,2.200521 2.070312,3.320313 l 3.007813,4.628906 c 1.770833,2.734375 2.671875,3.8177083 3.257812,4.1953125 0.29948,0.1953125 0.716146,0.2929687 1.25,0.2929687 l 0.195313,0.1953125 z"
           id="path1041"
           sodipodi:nodetypes="cccsccccccscsscscssccccccsccccccssccccccscsccsccccccc" />
        <path
           d="m 121.95313,-26.054687 -0.19532,0.195312 c -1.53645,0 -2.40234,0.410156 -2.59765,1.230469 -0.10417,0.455729 -0.18229,1.445313 -0.23438,2.96875 -0.0391,1.132813 -0.0586,2.766927 -0.0586,4.902344 v 6.015624 c 0,3.8671879 -0.76172,6.6276047 -2.28516,8.2812505 -2.01823,2.1875 -4.89583,3.28125 -8.63281,3.28125 -3.41146,0 -6.07422,-0.56640625 -7.988283,-1.69921875 -1.614583,-0.96354165 -2.669271,-2.33072915 -3.164062,-4.10156245 -0.3125,-1.1328125 -0.46875,-4.0885416 -0.46875,-8.8671873 v -5.039063 c 0,-3.098958 -0.0043,-3.751005 -0.173542,-4.688505 -0.06511,-0.377604 -0.286461,-0.618489 -0.664063,-0.722656 -0.195313,-0.05209 -0.949219,-0.12891 -2.277343,-0.207032 l -0.203126,-0.183593 -0.08036,-2.674776 0.195323,-0.0625 c 1.25,0.07813 3.255208,-0.01563 6.015625,-0.01563 2.812501,0 4.811201,-0.03906 5.996091,-0.117188 l 0.19531,0.195313 v 1.308594 l -0.19531,0.195312 c -1.32813,0.07813 -2.08985,0.14323 -2.28516,0.195313 -0.3776,0.104167 -0.59895,0.345052 -0.66406,0.722656 -0.16927,0.9375 -0.25391,2.955729 -0.25391,6.054687 v 4.023438 c 0,4.9218749 0.22136,7.9361977 0.66407,9.0429685 0.88541,2.1875 3.0664,3.28125 6.54297,3.28125 2.27864,0 4.05598,-0.5598958 5.33203,-1.6796875 0.59895,-0.5338541 1.01562,-1.0742187 1.25,-1.6210937 0.23437,-0.546875 0.41666,-1.3932292 0.54687,-2.5390626 0.11719,-1.0677083 0.17578,-2.1484377 0.17578,-3.2421877 v -4.0625 c 0,-3.411458 -0.013,-5.742187 -0.0391,-6.992187 -0.0261,-1.171875 -0.10419,-1.933594 -0.23437,-2.285156 -0.10417,-0.260417 -0.33203,-0.46224 -0.6836,-0.605469 -0.29948,-0.117187 -1.10026,-0.214844 -2.40234,-0.292969 l -0.19531,-0.195312 v -1.308594 l 0.19531,-0.195313 c 1.13281,0.07813 2.29818,0.117188 3.49609,0.117188 0.89844,0 2.6237,-0.03906 5.17578,-0.117188 l 0.19532,0.195313 z"
           id="path1043"
           sodipodi:nodetypes="ccccsscsccssccccccsccccccsscscscsscccccccsccc" />
        <path
           d="m 155.01953,-26.054687 -0.21484,0.195312 q -1.99219,0.117188 -2.28516,0.195313 -0.56641,0.15625 -0.66406,0.722656 -0.25391,1.40625 -0.25391,6.054687 v 7.929688 q 0,8.769531 0.25391,11.425781 l -0.25391,0.17578125 Q 149.39453,0.2734375 148.26172,0.1171875 143.02734,-5.7617187 130.39062,-21.328125 v 12.7734375 q 0,4.6484375 0.25391,6.0546875 0.0977,0.5664063 0.66406,0.7226563 0.29297,0.078125 2.28516,0.1953125 l 0.19531,0.1953125 v 1.32812495 L 133.59375,0.1171875 Q 131.34766,0 129.41406,0 q -2.24609,0 -4.51172,0.1171875 l -0.19531,-0.17578125 V -1.3867187 l 0.19531,-0.1953125 q 1.99219,-0.1171875 2.28516,-0.1953125 0.56641,-0.15625 0.66406,-0.7226563 0.25391,-1.40625 0.25391,-6.0546875 V -18.886719 q 0,-4.648437 -0.25391,-6.054687 -0.0977,-0.566406 -0.66406,-0.722656 -0.29297,-0.07813 -2.28516,-0.195313 l -0.19531,-0.195312 v -1.328125 l 0.19531,-0.175782 q 1.85547,0.117188 3.53516,0.117188 2.63672,0 4.375,-0.117188 7.03125,9.375 16.52344,20.0976565 V -18.886719 q 0,-4.648437 -0.25391,-6.054687 -0.0977,-0.566406 -0.66406,-0.722656 -0.29297,-0.07813 -2.28516,-0.195313 l -0.19531,-0.195312 v -1.328125 l 0.19531,-0.175782 q 2.1875,0.117188 4.16016,0.117188 2.51953,0 4.53125,-0.117188 l 0.19531,0.175782 z"
           id="path1045" />
        <path
           d="m 187.71484,-15.351563 q 0,6.6210942 -4.3164,10.976563 -2.10938,2.1289062 -5.11719,3.3007813 -3.22266,1.2695312 -7.51953,1.1914062 L 163.86719,0 q -2.8125,-0.0390625 -4.64844,0.1171875 L 159.02344,-0.078125 V -0.625 l 0.0977,-0.234375 q 1.44532,-0.9179687 1.5625,-1.1523438 0.17578,-0.3515625 0.21485,-2.5976562 l 0.0586,-4.375 v -9.902344 q 0,-4.648437 -0.25391,-6.054687 -0.0977,-0.566406 -0.66406,-0.722656 -0.29297,-0.07813 -2.28515,-0.195313 l -0.19532,-0.195312 v -1.328125 l 0.19532,-0.175782 q 2.07031,0.117188 3.94531,0.117188 4.55078,0 8.20312,-0.117188 1.81641,-0.05859 3.65235,-0.05859 5.07812,0 7.79297,1.152343 2.96875,1.269532 4.64843,3.984375 1.71875,2.792969 1.71875,7.128906 z m -5.99609,0.9375 q 0,-5.410156 -2.61719,-8.320312 -1.36719,-1.523437 -3.41797,-2.148437 -1.95312,-0.585938 -5.44922,-0.585938 -1.8164,0 -3.47656,0.253906 -0.19531,2.1875 -0.19531,10.585938 l 0.0391,8.535156 q 0.0195,2.8515625 0.15625,3.7890625 1.71875,0.2734375 3.51563,0.2734375 3.88672,0 6.13281,-1.1328125 2.42187,-1.2304687 3.84766,-4.1796875 1.46484,-3.046875 1.46484,-7.070313 z"
           id="path1047" />
        <path
           d="m 211.89453,-9.0234375 q 0,3.2226563 -1.83594,5.6835937 -1.60156,2.1679688 -4.19922,3.2226563 -2.38281,0.9765625 -5.68359,0.9765625 -4.10156,0 -8.04687,-1.875 l -0.23438,-0.4296875 q 0.54688,-2.2460938 0.54688,-6.3867187 l 0.19531,-0.1953126 h 1.25 l 0.17578,0.1953126 v 0.4492187 q 0,1.09375 0.23437,2.890625 0.70313,1.25 2.51954,2.1484375 1.89453,0.9375 3.94531,0.9375 3.86719,0 5.35156,-2.6953125 0.76172,-1.3867187 0.76172,-2.8710937 0,-2.5000001 -2.08984,-3.5742188 -1.03516,-0.527344 -3.33985,-0.878906 -5.21484,-0.800782 -6.85547,-2.011719 -2.48047,-1.835938 -2.48047,-5.683594 0,-4.003906 2.69532,-6.386718 2.85156,-2.5 7.92968,-2.5 4.57032,0 7.38282,1.464843 l 0.13672,0.46875 q -0.46875,2.324219 -0.56641,5.585938 l -0.21484,0.195312 h -1.23047 l -0.19532,-0.195312 q -0.0586,-2.34375 -0.19531,-3.046875 -0.60547,-0.917969 -2.10937,-1.5625 -1.60157,-0.664063 -3.33985,-0.664063 -2.61718,0 -4.14062,1.386719 -1.42578,1.308594 -1.42578,3.378906 0,2.246094 1.62109,3.300782 1.05469,0.683593 4.98047,1.308593 0.41016,0.05859 2.28516,0.390625 1.15234,0.195313 2.1289,0.566406 1.97266,0.742188 2.96875,2.265625 1.07422,1.660157 1.07422,4.1406255 z"
           id="path1049" />
        <path
           id="path3604"
           d="m 451,670.95703 -0.19531,0.19531 v 1.3086 L 451,672.65625 c 1.32813,0.0781 2.08985,0.14323 2.28516,0.19531 0.3776,0.10417 0.59895,0.34505 0.66406,0.72266 0.16927,0.9375 0.2539,2.95573 0.2539,6.05469 v 4.02343 c 0,1.73158 0.14468,3.22892 0.0899,4.48829 l 3.85547,-0.0156 c 0.0227,-1.02361 0.0351,-2.16823 0.0351,-3.45703 v -5.03906 c 0,-3.09896 0.005,-3.75196 0.17383,-4.68946 0.0651,-0.3776 0.31771,-0.65364 0.69531,-0.75781 0.19532,-0.0521 0.84766,-0.11719 2.25782,-0.16016 l 0.1914,-0.19531 0.0801,-2.67383 -0.19531,-0.0625 c -1.25,0.0781 -3.25912,-0.0547 -6.01954,-0.0547 -2.8125,0 -3.18229,-4e-5 -4.36718,-0.0781 z"
           transform="translate(-389.20785,-698.53418)"
           sodipodi:nodetypes="ccccccssccssccccccscc" />
        <path
           id="path5055"
           d="M 451 670.95703 L 450.80469 671.15234 L 450.80469 672.46094 L 451 672.65625 C 452.32813 672.73435 453.08985 672.79948 453.28516 672.85156 C 453.66276 672.95573 453.88411 673.19661 453.94922 673.57422 C 454.11849 674.51172 454.20312 676.52995 454.20312 679.62891 L 454.20312 683.65234 C 454.20312 683.79664 454.20522 683.93708 454.20703 684.07812 L 454.20703 685.61328 C 454.2063 685.62887 454.20312 685.6447 454.20312 685.66016 L 454.20312 689.68359 C 454.20312 692.78255 454.11849 694.80078 453.94922 695.73828 C 453.88411 696.11589 453.66276 696.35677 453.28516 696.46094 C 453.20384 696.48262 453.00031 696.507 452.72266 696.5332 L 444.20703 696.5332 L 444.20703 698.5332 L 482.02734 698.5332 L 482.20703 698.35938 L 482.20703 696.69141 L 482.03906 696.5332 L 460.90234 696.5332 C 459.79481 696.49102 459.22639 696.43499 459.05273 696.38867 C 458.67513 696.2845 458.42252 696.00846 458.35742 695.63086 C 458.27301 695.16211 458.22938 694.45101 458.20703 693.46875 L 458.20703 676.47461 C 458.22938 675.8068 458.27301 675.4082 458.35742 674.93945 C 458.42252 674.56185 458.67513 674.28581 459.05273 674.18164 C 459.23178 674.13388 459.82512 674.07575 461.00391 674.0332 L 487.66797 674.0332 L 487.70898 674.0332 C 487.74618 673.05586 487.72228 672.01939 487.67578 671.09961 L 455.36719 671.03516 C 452.55469 671.03516 452.18489 671.03509 451 670.95703 z "
           transform="translate(-389.20785,-698.53418)" />
      </g>
      <path
         id="line1008"
         transform="translate(545.629,318.895)"
         style="fill:none"
         d="M 0,0 H 419" />
      <path
         id="rect1012"
         style="fill:url(#radialGradient1022);stroke-width:0.99815"
         d="m 547.4524,318.422 h 418.94223 v 2 H 547.4524 Z" />
      <path
         id="path8224"
         style="fill:#f8f8f9;stroke-width:0.99815;fill-opacity:1"
         d="m 547.4524,322.422 h 418.94223 v 2 H 547.4524 Z" />
      <path
         style="color:#000000;fill:#dc3022;-inkscape-stroke:none"
         d="M -1,-0.421875 V 79 H 1 V -0.421875 Z"
         id="line1016"
         transform="translate(835.629,257.922)" />
      <path
         style="color:#000000;fill:#dc3022;-inkscape-stroke:none"
         d="M -3,0 V 79.421875 H 3 V 0 Z"
         id="line1018"
         transform="translate(841.629,257.5)" />
    </g>
    <rect
       style="fill:none;stroke:#ff00ff;stroke-width:0.793999;stroke-miterlimit:4;stroke-dasharray:none;stroke-opacity:0"
       id="rect4048"
       width="5.0727725"
       height="7.7915125"
       x="114.07676"
       y="177.01451" />
    <g
       id="g12096"
       data-name="Group 87"
       transform="matrix(0.26458333,0,0,0.26458333,-96.684346,102.42343)">
      <g
         aria-label="CRIMSON"
         transform="translate(545.629,312.422)"
         id="g12066"
         style="font-weight:700;font-size:40px;font-family:PalatinoLinotype-Bold, 'Palatino Linotype';fill:#f8f8f9">
        <path
           d="m 27.636719,-3.4179688 -0.898438,1.9921876 q -4.121094,2.26562495 -9.21875,2.26562495 -10.1953123,0 -13.9453122,-7.34374995 -1.7382813,-3.3984376 -1.7382813,-7.3632818 0,-6.406249 4.2578125,-10.214843 4.355469,-3.925781 11.894531,-3.925781 4.785156,0 9.355469,1.738281 l 0.253906,0.292969 q -0.664062,2.695312 -0.820312,6.308593 l -0.175782,0.195313 H 25.449219 L 25.253906,-19.6875 q -0.05859,-2.363281 -0.214844,-3.28125 -2.441406,-2.753906 -7.050781,-2.753906 -4.746093,0 -7.441406,3.007812 -2.6953125,3.007813 -2.6953125,8.164063 0,6.972656 4.8046875,10.7031247 2.558594,1.9921876 6.855469,1.9921876 3.90625,0 7.636718,-2.0117188 z"
           id="path12052" />
        <path
           d="m 56.875,-0.078125 -0.195313,0.1953125 q -0.136718,0 -0.742187,-0.01953125 Q 53.261719,0 52.597656,0 q -0.996094,0 -3.164062,0.1171875 -0.07813,-0.46875 -0.742188,-1.5625 l -4.84375,-8.0859375 -2.167969,-3.300781 q -0.410156,-0.605469 -1.152343,-1.191407 l 0.214843,-0.664062 q 0.449219,0.01953 0.664063,0.01953 1.914062,0 3.007812,-0.605469 0.996094,-0.546875 1.835938,-1.914062 0.839844,-1.367187 0.839844,-3.261719 0,-3.300781 -2.460938,-4.453125 -1.171875,-0.546875 -3.417969,-0.546875 -0.976562,0 -1.875,0.15625 -0.195312,1.914063 -0.195312,6.523438 v 10.2148435 q 0,4.6484375 0.253906,6.0546875 0.09766,0.5664063 0.664063,0.7226563 0.292968,0.078125 2.285156,0.1953125 l 0.195312,0.1953125 V -0.078125 L 42.363281,0.1171875 Q 40.410156,0 36.347656,0 32.148437,0 30.332031,0.1171875 L 30.136719,-0.05859375 V -1.3867187 l 0.195312,-0.1953125 q 1.992188,-0.1171875 2.285156,-0.1953125 0.566407,-0.15625 0.664063,-0.7226563 0.253906,-1.40625 0.253906,-6.0546875 V -18.886719 q 0,-4.648437 -0.253906,-6.054687 -0.09766,-0.566406 -0.664063,-0.722656 -0.292968,-0.07813 -2.285156,-0.195313 l -0.195312,-0.195312 v -1.328125 l 0.195312,-0.175782 q 1.914063,0.117188 6.015625,0.117188 2.382813,0 3.867188,-0.05859 2.949218,-0.117187 4.414062,-0.117187 3.378906,0 4.960938,0.605468 2.128906,0.820313 2.851562,2.773438 0.351563,0.957031 0.351563,2.265625 0,5.3125 -5.976563,7.539062 0.976563,1.640625 2.070313,3.320313 l 3.007812,4.628906 q 2.65625,4.1015625 3.535156,4.6679688 0.449219,0.2929687 1.25,0.2929687 L 56.875,-1.328125 Z"
           id="path12054" />
        <path
           d="M 71.425781,-0.078125 71.25,0.1171875 Q 69.296875,0 65.214844,0 61.152344,0 59.199219,0.1171875 L 59.023437,-0.078125 v -1.3085937 l 0.195313,-0.1953125 q 1.992187,-0.1171875 2.285156,-0.1953125 0.566406,-0.15625 0.664063,-0.7226563 0.253906,-1.40625 0.253906,-6.0546875 V -18.886719 q 0,-4.648437 -0.253906,-6.054687 -0.09766,-0.566406 -0.664063,-0.722656 -0.292969,-0.07813 -2.285156,-0.195313 l -0.195313,-0.195312 v -1.328125 l 0.195313,-0.175782 q 1.875,0.117188 6.015625,0.117188 4.121094,0 5.996094,-0.117188 l 0.195312,0.175782 v 1.328125 l -0.195312,0.195312 q -1.992188,0.117188 -2.285157,0.195313 -0.566406,0.15625 -0.664062,0.722656 -0.253906,1.40625 -0.253906,6.054687 v 10.3320315 q 0,4.6484375 0.253906,6.0546875 0.09766,0.5664063 0.664062,0.7226563 0.292969,0.078125 2.285157,0.1953125 l 0.195312,0.1953125 z m -6.210937,-28.59375 z m 0,30.1953125 z"
           id="path12056" />
        <path
           d="m 111.60156,-0.078125 -0.19531,0.1953125 Q 109.47266,0 105.39063,0 101.21094,0 99.375,0.1171875 L 99.199219,-0.05859375 V -1.3867187 l 0.195312,-0.1953125 q 1.992189,-0.1171875 2.285159,-0.1953125 0.5664,-0.15625 0.66406,-0.7226563 0.25391,-1.40625 0.25391,-6.0546875 V -21.757812 l -4.355473,8.925781 q -0.371093,0.742187 -2.539062,5.4687498 L 92.128906,0.44921875 H 90.820312 Q 89.804687,-1.9726562 88.066406,-5.6640625 l -2.734375,-5.8007815 -5.117187,-10.644531 v 13.5546875 q 0,4.6484375 0.253906,6.0546875 0.09766,0.5664063 0.664062,0.7226563 0.292969,0.078125 2.285157,0.1953125 l 0.195312,0.1953125 v 1.32812495 L 83.417969,0.1171875 Q 81.171875,0 79.238281,0 76.992187,0 74.726562,0.1171875 L 74.53125,-0.05859375 V -1.3867187 l 0.195312,-0.1953125 q 1.992188,-0.1171875 2.285157,-0.1953125 0.566406,-0.15625 0.664062,-0.7226563 0.253906,-1.40625 0.253906,-6.0546875 V -18.886719 q 0,-4.648437 -0.253906,-6.054687 -0.09766,-0.566406 -0.664062,-0.722656 -0.292969,-0.07813 -2.285157,-0.195313 l -0.195312,-0.195312 v -1.328125 l 0.195312,-0.175782 q 2.03125,0.117188 5.136719,0.117188 2.382813,0 4.160156,-0.117188 0.644532,1.484375 1.835938,4.179688 l 1.25,2.695312 6.210937,12.9882815 2.988282,-6.0546875 4.667966,-9.980469 q 0.82032,-1.777343 1.60157,-3.828125 2.20703,0.117188 2.96875,0.117188 3.82812,0 5.85937,-0.117188 l 0.19531,0.175782 v 1.347656 l -0.19531,0.175781 q -1.99219,0.117188 -2.28516,0.195313 -0.5664,0.15625 -0.66406,0.722656 -0.2539,1.40625 -0.2539,6.054687 v 10.3320315 q 0,4.6484375 0.2539,6.0546875 0.0977,0.5664063 0.66406,0.7226563 0.29297,0.078125 2.28516,0.1953125 l 0.19531,0.1953125 z"
           id="path12058" />
        <path
           d="m 135.35156,-9.0234375 q 0,3.2226563 -1.83594,5.6835937 -1.60156,2.1679688 -4.19921,3.2226563 -2.38282,0.9765625 -5.6836,0.9765625 -4.10156,0 -8.04687,-1.875 l -0.23438,-0.4296875 q 0.54688,-2.2460938 0.54688,-6.3867187 l 0.19531,-0.1953126 h 1.25 l 0.17578,0.1953126 v 0.4492187 q 0,1.09375 0.23438,2.890625 0.70312,1.25 2.51953,2.1484375 1.89453,0.9375 3.94531,0.9375 3.86719,0 5.35156,-2.6953125 0.76172,-1.3867187 0.76172,-2.8710937 0,-2.5000001 -2.08984,-3.5742188 -1.03516,-0.527344 -3.33985,-0.878906 -5.21484,-0.800782 -6.85546,-2.011719 -2.48047,-1.835938 -2.48047,-5.683594 0,-4.003906 2.69531,-6.386718 2.85156,-2.5 7.92969,-2.5 4.57031,0 7.38281,1.464843 l 0.13672,0.46875 q -0.46875,2.324219 -0.56641,5.585938 l -0.21484,0.195312 h -1.23047 l -0.19531,-0.195312 q -0.0586,-2.34375 -0.19532,-3.046875 -0.60547,-0.917969 -2.10937,-1.5625 -1.60156,-0.664063 -3.33984,-0.664063 -2.61719,0 -4.14063,1.386719 -1.42578,1.308594 -1.42578,3.378906 0,2.246094 1.62109,3.300782 1.05469,0.683593 4.98047,1.308593 0.41016,0.05859 2.28516,0.390625 1.15234,0.195313 2.1289,0.566406 1.97266,0.742188 2.96875,2.265625 1.07422,1.660157 1.07422,4.1406255 z"
           id="path12060" />
        <path
           d="m 168.92578,-14.433594 q 0,7.2070315 -4.19922,11.308594 -4.08203,3.984375 -11.15234,3.984375 -6.67969,0 -10.48828,-3.75 -3.8086,-3.7695312 -3.8086,-10.46875 0,-9.394531 7.16797,-13.007812 3.26172,-1.640625 8.02735,-1.640625 6.8164,0 10.60546,3.574218 3.84766,3.632813 3.84766,10 z m -6.01562,1.015625 q 0,-5.664062 -2.28516,-8.984375 -2.26563,-3.339843 -6.66016,-3.339843 -5.80078,0 -7.69531,5.214843 -0.97656,2.675782 -0.97656,5.996094 0,6.0351562 2.22656,9.53125 2.30469,3.6132813 6.89453,3.6132813 5.56641,0 7.48047,-5.4882813 1.01563,-2.9101563 1.01563,-6.542969 z m -8.92579,14.9414065 z m 0,-30.1953125 z"
           id="path12062" />
        <path
           d="m 202.79297,-26.054687 -0.21485,0.195312 q -1.99218,0.117188 -2.28515,0.195313 -0.56641,0.15625 -0.66406,0.722656 -0.25391,1.40625 -0.25391,6.054687 v 7.929688 q 0,8.769531 0.25391,11.425781 L 199.375,0.64453125 Q 197.16797,0.2734375 196.03516,0.1171875 190.80078,-5.7617187 178.16406,-21.328125 v 12.7734375 q 0,4.6484375 0.25391,6.0546875 0.0977,0.5664063 0.66406,0.7226563 0.29297,0.078125 2.28516,0.1953125 l 0.19531,0.1953125 v 1.32812495 L 181.36719,0.1171875 Q 179.12109,0 177.1875,0 q -2.24609,0 -4.51172,0.1171875 l -0.19531,-0.17578125 V -1.3867187 l 0.19531,-0.1953125 q 1.99219,-0.1171875 2.28516,-0.1953125 0.5664,-0.15625 0.66406,-0.7226563 0.25391,-1.40625 0.25391,-6.0546875 V -18.886719 q 0,-4.648437 -0.25391,-6.054687 -0.0977,-0.566406 -0.66406,-0.722656 -0.29297,-0.07813 -2.28516,-0.195313 l -0.19531,-0.195312 v -1.328125 l 0.19531,-0.175782 q 1.85547,0.117188 3.53516,0.117188 2.63672,0 4.375,-0.117188 7.03125,9.375 16.52343,20.0976565 V -18.886719 q 0,-4.648437 -0.2539,-6.054687 -0.0977,-0.566406 -0.66406,-0.722656 -0.29297,-0.07813 -2.28516,-0.195313 l -0.19531,-0.195312 v -1.328125 l 0.19531,-0.175782 q 2.1875,0.117188 4.16016,0.117188 2.51953,0 4.53125,-0.117188 l 0.19531,0.175782 z"
           id="path12064" />
      </g>
      <g
         aria-label="GR   UNDS"
         transform="translate(754.629,311.422)"
         id="g12084"
         style="font-weight:700;font-size:40px;font-family:PalatinoLinotype-Bold, 'Palatino Linotype';fill:#dc3022">
        <path
           d="m 31.40625,-9.8632813 -0.195313,0.2148438 Q 30,-9.3554688 29.804687,-8.828125 q -0.195312,0.5078125 -0.195312,3.9453125 0,1.6601562 0.15625,3.28125 -6.523438,2.4609375 -11.835938,2.4609375 -6.992187,0 -11.3281245,-3.90625 -4.3164062,-3.9257812 -4.3164062,-10.683594 0,-8.808593 7.6367187,-12.558593 3.496094,-1.71875 8.886719,-1.71875 3.125,0 6.328125,0.683593 2.636718,0.566407 4.160156,1.289063 l 0.175781,0.351562 q -0.507812,1.71875 -0.839844,5.976563 l -0.214843,0.195312 h -1.171875 l -0.195313,-0.195312 q 0,-0.371094 -0.07813,-1.523438 -0.07813,-1.171875 -0.195312,-1.640625 -0.859375,-1.171875 -2.929688,-1.992187 -2.226562,-0.859375 -4.804687,-0.859375 -6.914063,0 -9.5507815,5.585937 -1.2109375,2.578125 -1.2109375,5.976563 0,5.4296872 2.890625,9.003906 3.007813,3.7109375 7.832031,3.7109375 2.558594,0 4.941406,-1.09375 0.136719,-1.3671875 0.136719,-3.75 0,-1.9335938 -0.136719,-2.34375 -0.117187,-0.3125 -0.742187,-0.4492188 Q 22.675781,-9.1992188 19.902344,-9.375 L 19.6875,-9.5703125 v -1.2304685 l 0.214844,-0.195313 q 2.832031,0.07813 5.9375,0.05859 1.796875,-0.01953 5.371093,-0.05859 l 0.195313,0.195313 z"
           id="path12068" />
        <path
           d="m 61.308594,-0.078125 -0.1875,0.0234375 c -0.09115,0 -0.369792,0.02473958 -0.773438,0.01171875 C 58.563802,-0.10807292 57.473958,0 57.03125,0 56.367187,0 55.3125,0.0390625 53.867187,0.1171875 53.8151,-0.1953125 53.567705,-0.71614583 53.125,-1.4453125 L 48.28125,-9.53125 46.113281,-12.832031 c -0.273437,-0.403646 -0.657552,-0.800782 -1.152344,-1.191407 l 0.214844,-0.664062 c 0.299479,0.01302 0.520834,0.01953 0.664063,0.01953 1.276041,0 2.278645,-0.201823 3.007812,-0.605469 0.664063,-0.364583 1.276042,-1.002604 1.835938,-1.914062 0.559895,-0.911458 0.839843,-1.998698 0.839843,-3.261719 0,-2.200521 -0.820312,-3.684896 -2.460937,-4.453125 -0.78125,-0.364583 -1.920573,-0.546875 -3.417969,-0.546875 -0.651041,0 -1.276041,0.05208 -1.875,0.15625 -0.130208,1.276042 -0.195312,3.450521 -0.195312,6.523438 v 10.2148435 c 0,3.0989583 0.08463,5.1171875 0.253906,6.0546875 0.06511,0.3776042 0.286461,0.6184896 0.664062,0.7226563 0.195313,0.052083 0.957032,0.1171875 2.285157,0.1953125 l 0.195312,0.1953125 V -0.078125 L 46.796875,0.1171875 C 45.494792,0.0390625 43.489583,0 40.78125,0 37.981771,0 35.976562,0.0390625 34.765625,0.1171875 L 34.570312,-0.05859375 V -1.3867187 l 0.195313,-0.1953125 c 1.328125,-0.078125 2.089843,-0.1432292 2.285156,-0.1953125 C 37.428385,-1.8815104 37.649739,-2.1223958 37.714844,-2.5 37.884115,-3.4375 37.96875,-5.4557292 37.96875,-8.5546875 V -18.886719 c 0,-3.098958 -0.08463,-5.117187 -0.253906,-6.054687 -0.06511,-0.377604 -0.286461,-0.618489 -0.664063,-0.722656 -0.195313,-0.05209 -0.957031,-0.117191 -2.285156,-0.195313 l -0.195313,-0.195312 v -1.328125 l 0.195313,-0.175782 c 1.276041,0.07813 3.28125,0.117188 6.015625,0.117188 1.588541,0 2.877604,-0.01953 3.867187,-0.05859 1.966146,-0.07813 3.4375,-0.117187 4.414063,-0.117187 2.252604,0 3.90625,0.201823 4.960937,0.605468 1.419271,0.546875 2.369792,1.471355 2.851563,2.773438 0.234375,0.638021 0.351562,1.393229 0.351562,2.265625 0,3.541667 -1.992187,6.054687 -5.976562,7.539062 0.651041,1.09375 1.341145,2.200521 2.070312,3.320313 l 3.007813,4.628906 c 1.770833,2.734375 2.671875,3.8177083 3.257812,4.1953125 0.29948,0.1953125 0.716146,0.2929687 1.25,0.2929687 l 0.195313,0.1953125 z"
           id="path12070"
           sodipodi:nodetypes="cccsccccccscsscscssccccccsccccccssccccccscsccsccccccc" />
        <path
           d="m 121.95313,-26.054687 -0.19532,0.195312 c -1.53645,0 -2.40234,0.410156 -2.59765,1.230469 -0.10417,0.455729 -0.18229,1.445313 -0.23438,2.96875 -0.0391,1.132813 -0.0586,2.766927 -0.0586,4.902344 v 6.015624 c 0,3.8671879 -0.76172,6.6276047 -2.28516,8.2812505 -2.01823,2.1875 -4.89583,3.28125 -8.63281,3.28125 -3.41146,0 -6.07422,-0.56640625 -7.988283,-1.69921875 -1.614583,-0.96354165 -2.669271,-2.33072915 -3.164062,-4.10156245 -0.3125,-1.1328125 -0.46875,-4.0885416 -0.46875,-8.8671873 v -5.039063 c 0,-3.098958 -0.0043,-3.751005 -0.173542,-4.688505 -0.06511,-0.377604 -0.286461,-0.618489 -0.664063,-0.722656 -0.195313,-0.05209 -0.949219,-0.12891 -2.277343,-0.207032 l -0.203126,-0.183593 -0.08036,-2.674776 0.195323,-0.0625 c 1.25,0.07813 3.255208,-0.01563 6.015625,-0.01563 2.812501,0 4.811201,-0.03906 5.996091,-0.117188 l 0.19531,0.195313 v 1.308594 l -0.19531,0.195312 c -1.32813,0.07813 -2.08985,0.14323 -2.28516,0.195313 -0.3776,0.104167 -0.59895,0.345052 -0.66406,0.722656 -0.16927,0.9375 -0.25391,2.955729 -0.25391,6.054687 v 4.023438 c 0,4.9218749 0.22136,7.9361977 0.66407,9.0429685 0.88541,2.1875 3.0664,3.28125 6.54297,3.28125 2.27864,0 4.05598,-0.5598958 5.33203,-1.6796875 0.59895,-0.5338541 1.01562,-1.0742187 1.25,-1.6210937 0.23437,-0.546875 0.41666,-1.3932292 0.54687,-2.5390626 0.11719,-1.0677083 0.17578,-2.1484377 0.17578,-3.2421877 v -4.0625 c 0,-3.411458 -0.013,-5.742187 -0.0391,-6.992187 -0.0261,-1.171875 -0.10419,-1.933594 -0.23437,-2.285156 -0.10417,-0.260417 -0.33203,-0.46224 -0.6836,-0.605469 -0.29948,-0.117187 -1.10026,-0.214844 -2.40234,-0.292969 l -0.19531,-0.195312 v -1.308594 l 0.19531,-0.195313 c 1.13281,0.07813 2.29818,0.117188 3.49609,0.117188 0.89844,0 2.6237,-0.03906 5.17578,-0.117188 l 0.19532,0.195313 z"
           id="path12072"
           sodipodi:nodetypes="ccccsscsccssccccccsccccccsscscscsscccccccsccc" />
        <path
           d="m 155.01953,-26.054687 -0.21484,0.195312 q -1.99219,0.117188 -2.28516,0.195313 -0.56641,0.15625 -0.66406,0.722656 -0.25391,1.40625 -0.25391,6.054687 v 7.929688 q 0,8.769531 0.25391,11.425781 l -0.25391,0.17578125 Q 149.39453,0.2734375 148.26172,0.1171875 143.02734,-5.7617187 130.39062,-21.328125 v 12.7734375 q 0,4.6484375 0.25391,6.0546875 0.0977,0.5664063 0.66406,0.7226563 0.29297,0.078125 2.28516,0.1953125 l 0.19531,0.1953125 v 1.32812495 L 133.59375,0.1171875 Q 131.34766,0 129.41406,0 q -2.24609,0 -4.51172,0.1171875 l -0.19531,-0.17578125 V -1.3867187 l 0.19531,-0.1953125 q 1.99219,-0.1171875 2.28516,-0.1953125 0.56641,-0.15625 0.66406,-0.7226563 0.25391,-1.40625 0.25391,-6.0546875 V -18.886719 q 0,-4.648437 -0.25391,-6.054687 -0.0977,-0.566406 -0.66406,-0.722656 -0.29297,-0.07813 -2.28516,-0.195313 l -0.19531,-0.195312 v -1.328125 l 0.19531,-0.175782 q 1.85547,0.117188 3.53516,0.117188 2.63672,0 4.375,-0.117188 7.03125,9.375 16.52344,20.0976565 V -18.886719 q 0,-4.648437 -0.25391,-6.054687 -0.0977,-0.566406 -0.66406,-0.722656 -0.29297,-0.07813 -2.28516,-0.195313 l -0.19531,-0.195312 v -1.328125 l 0.19531,-0.175782 q 2.1875,0.117188 4.16016,0.117188 2.51953,0 4.53125,-0.117188 l 0.19531,0.175782 z"
           id="path12074" />
        <path
           d="m 187.71484,-15.351563 q 0,6.6210942 -4.3164,10.976563 -2.10938,2.1289062 -5.11719,3.3007813 -3.22266,1.2695312 -7.51953,1.1914062 L 163.86719,0 q -2.8125,-0.0390625 -4.64844,0.1171875 L 159.02344,-0.078125 V -0.625 l 0.0977,-0.234375 q 1.44532,-0.9179687 1.5625,-1.1523438 0.17578,-0.3515625 0.21485,-2.5976562 l 0.0586,-4.375 v -9.902344 q 0,-4.648437 -0.25391,-6.054687 -0.0977,-0.566406 -0.66406,-0.722656 -0.29297,-0.07813 -2.28515,-0.195313 l -0.19532,-0.195312 v -1.328125 l 0.19532,-0.175782 q 2.07031,0.117188 3.94531,0.117188 4.55078,0 8.20312,-0.117188 1.81641,-0.05859 3.65235,-0.05859 5.07812,0 7.79297,1.152343 2.96875,1.269532 4.64843,3.984375 1.71875,2.792969 1.71875,7.128906 z m -5.99609,0.9375 q 0,-5.410156 -2.61719,-8.320312 -1.36719,-1.523437 -3.41797,-2.148437 -1.95312,-0.585938 -5.44922,-0.585938 -1.8164,0 -3.47656,0.253906 -0.19531,2.1875 -0.19531,10.585938 l 0.0391,8.535156 q 0.0195,2.8515625 0.15625,3.7890625 1.71875,0.2734375 3.51563,0.2734375 3.88672,0 6.13281,-1.1328125 2.42187,-1.2304687 3.84766,-4.1796875 1.46484,-3.046875 1.46484,-7.070313 z"
           id="path12076" />
        <path
           d="m 211.89453,-9.0234375 q 0,3.2226563 -1.83594,5.6835937 -1.60156,2.1679688 -4.19922,3.2226563 -2.38281,0.9765625 -5.68359,0.9765625 -4.10156,0 -8.04687,-1.875 l -0.23438,-0.4296875 q 0.54688,-2.2460938 0.54688,-6.3867187 l 0.19531,-0.1953126 h 1.25 l 0.17578,0.1953126 v 0.4492187 q 0,1.09375 0.23437,2.890625 0.70313,1.25 2.51954,2.1484375 1.89453,0.9375 3.94531,0.9375 3.86719,0 5.35156,-2.6953125 0.76172,-1.3867187 0.76172,-2.8710937 0,-2.5000001 -2.08984,-3.5742188 -1.03516,-0.527344 -3.33985,-0.878906 -5.21484,-0.800782 -6.85547,-2.011719 -2.48047,-1.835938 -2.48047,-5.683594 0,-4.003906 2.69532,-6.386718 2.85156,-2.5 7.92968,-2.5 4.57032,0 7.38282,1.464843 l 0.13672,0.46875 q -0.46875,2.324219 -0.56641,5.585938 l -0.21484,0.195312 h -1.23047 l -0.19532,-0.195312 q -0.0586,-2.34375 -0.19531,-3.046875 -0.60547,-0.917969 -2.10937,-1.5625 -1.60157,-0.664063 -3.33985,-0.664063 -2.61718,0 -4.14062,1.386719 -1.42578,1.308594 -1.42578,3.378906 0,2.246094 1.62109,3.300782 1.05469,0.683593 4.98047,1.308593 0.41016,0.05859 2.28516,0.390625 1.15234,0.195313 2.1289,0.566406 1.97266,0.742188 2.96875,2.265625 1.07422,1.660157 1.07422,4.1406255 z"
           id="path12078" />
        <path
           id="path12080"
           d="m 451,670.95703 -0.19531,0.19531 v 1.3086 L 451,672.65625 c 1.32813,0.0781 2.08985,0.14323 2.28516,0.19531 0.3776,0.10417 0.59895,0.34505 0.66406,0.72266 0.16927,0.9375 0.2539,2.95573 0.2539,6.05469 v 4.02343 c 0,1.73158 0.14468,3.22892 0.0899,4.48829 l 3.85547,-0.0156 c 0.0227,-1.02361 0.0351,-2.16823 0.0351,-3.45703 v -5.03906 c 0,-3.09896 0.005,-3.75196 0.17383,-4.68946 0.0651,-0.3776 0.31771,-0.65364 0.69531,-0.75781 0.19532,-0.0521 0.84766,-0.11719 2.25782,-0.16016 l 0.1914,-0.19531 0.0801,-2.67383 -0.19531,-0.0625 c -1.25,0.0781 -3.25912,-0.0547 -6.01954,-0.0547 -2.8125,0 -3.18229,-4e-5 -4.36718,-0.0781 z"
           transform="translate(-389.20785,-698.53418)"
           sodipodi:nodetypes="ccccccssccssccccccscc" />
        <path
           id="path12082"
           d="M 451 670.95703 L 450.80469 671.15234 L 450.80469 672.46094 L 451 672.65625 C 452.32813 672.73435 453.08985 672.79948 453.28516 672.85156 C 453.66276 672.95573 453.88411 673.19661 453.94922 673.57422 C 454.11849 674.51172 454.20312 676.52995 454.20312 679.62891 L 454.20312 683.65234 C 454.20312 683.79664 454.20522 683.93708 454.20703 684.07812 L 454.20703 685.61328 C 454.2063 685.62887 454.20312 685.6447 454.20312 685.66016 L 454.20312 689.68359 C 454.20312 692.78255 454.11849 694.80078 453.94922 695.73828 C 453.88411 696.11589 453.66276 696.35677 453.28516 696.46094 C 453.20384 696.48262 453.00031 696.507 452.72266 696.5332 L 444.20703 696.5332 L 444.20703 698.5332 L 482.02734 698.5332 L 482.20703 698.35938 L 482.20703 696.69141 L 482.03906 696.5332 L 460.90234 696.5332 C 459.79481 696.49102 459.22639 696.43499 459.05273 696.38867 C 458.67513 696.2845 458.42252 696.00846 458.35742 695.63086 C 458.27301 695.16211 458.22938 694.45101 458.20703 693.46875 L 458.20703 676.47461 C 458.22938 675.8068 458.27301 675.4082 458.35742 674.93945 C 458.42252 674.56185 458.67513 674.28581 459.05273 674.18164 C 459.23178 674.13388 459.82512 674.07575 461.00391 674.0332 L 487.66797 674.0332 L 487.70898 674.0332 C 487.74618 673.05586 487.72228 672.01939 487.67578 671.09961 L 455.36719 671.03516 C 452.55469 671.03516 452.18489 671.03509 451 670.95703 z "
           transform="translate(-389.20785,-698.53418)" />
      </g>
      <path
         id="path12086"
         transform="translate(545.629,318.895)"
         style="fill:none"
         d="M 0,0 H 419" />
      <path
         id="path12088"
         style="fill:url(#radialGradient1022);stroke-width:0.99815"
         d="m 547.4524,318.422 h 418.94223 v 2 H 547.4524 Z" />
      <path
         id="path12090"
         style="fill:#f8f8f9;stroke-width:0.99815;fill-opacity:1"
         d="m 547.4524,322.422 h 418.94223 v 2 H 547.4524 Z" />
      <path
         style="color:#000000;fill:#dc3022;-inkscape-stroke:none"
         d="M -1,-0.421875 V 79 H 1 V -0.421875 Z"
         id="path12092"
         transform="translate(835.629,257.922)" />
      <path
         style="color:#000000;fill:#dc3022;-inkscape-stroke:none"
         d="M -3,0 V 79.421875 H 3 V 0 Z"
         id="path12094"
         transform="translate(841.629,257.5)" />
    </g>
    <g
       id="g12144"
       data-name="Group 87"
       transform="matrix(0.26458333,0,0,0.26458333,-96.77789,147.5118)">
      <g
         aria-label="CRIMSON"
         transform="translate(545.629,312.422)"
         id="g12114"
         style="font-weight:700;font-size:40px;font-family:PalatinoLinotype-Bold, 'Palatino Linotype';fill:#f8f8f9">
        <path
           d="m 27.636719,-3.4179688 -0.898438,1.9921876 q -4.121094,2.26562495 -9.21875,2.26562495 -10.1953123,0 -13.9453122,-7.34374995 -1.7382813,-3.3984376 -1.7382813,-7.3632818 0,-6.406249 4.2578125,-10.214843 4.355469,-3.925781 11.894531,-3.925781 4.785156,0 9.355469,1.738281 l 0.253906,0.292969 q -0.664062,2.695312 -0.820312,6.308593 l -0.175782,0.195313 H 25.449219 L 25.253906,-19.6875 q -0.05859,-2.363281 -0.214844,-3.28125 -2.441406,-2.753906 -7.050781,-2.753906 -4.746093,0 -7.441406,3.007812 -2.6953125,3.007813 -2.6953125,8.164063 0,6.972656 4.8046875,10.7031247 2.558594,1.9921876 6.855469,1.9921876 3.90625,0 7.636718,-2.0117188 z"
           id="path12100" />
        <path
           d="m 56.875,-0.078125 -0.195313,0.1953125 q -0.136718,0 -0.742187,-0.01953125 Q 53.261719,0 52.597656,0 q -0.996094,0 -3.164062,0.1171875 -0.07813,-0.46875 -0.742188,-1.5625 l -4.84375,-8.0859375 -2.167969,-3.300781 q -0.410156,-0.605469 -1.152343,-1.191407 l 0.214843,-0.664062 q 0.449219,0.01953 0.664063,0.01953 1.914062,0 3.007812,-0.605469 0.996094,-0.546875 1.835938,-1.914062 0.839844,-1.367187 0.839844,-3.261719 0,-3.300781 -2.460938,-4.453125 -1.171875,-0.546875 -3.417969,-0.546875 -0.976562,0 -1.875,0.15625 -0.195312,1.914063 -0.195312,6.523438 v 10.2148435 q 0,4.6484375 0.253906,6.0546875 0.09766,0.5664063 0.664063,0.7226563 0.292968,0.078125 2.285156,0.1953125 l 0.195312,0.1953125 V -0.078125 L 42.363281,0.1171875 Q 40.410156,0 36.347656,0 32.148437,0 30.332031,0.1171875 L 30.136719,-0.05859375 V -1.3867187 l 0.195312,-0.1953125 q 1.992188,-0.1171875 2.285156,-0.1953125 0.566407,-0.15625 0.664063,-0.7226563 0.253906,-1.40625 0.253906,-6.0546875 V -18.886719 q 0,-4.648437 -0.253906,-6.054687 -0.09766,-0.566406 -0.664063,-0.722656 -0.292968,-0.07813 -2.285156,-0.195313 l -0.195312,-0.195312 v -1.328125 l 0.195312,-0.175782 q 1.914063,0.117188 6.015625,0.117188 2.382813,0 3.867188,-0.05859 2.949218,-0.117187 4.414062,-0.117187 3.378906,0 4.960938,0.605468 2.128906,0.820313 2.851562,2.773438 0.351563,0.957031 0.351563,2.265625 0,5.3125 -5.976563,7.539062 0.976563,1.640625 2.070313,3.320313 l 3.007812,4.628906 q 2.65625,4.1015625 3.535156,4.6679688 0.449219,0.2929687 1.25,0.2929687 L 56.875,-1.328125 Z"
           id="path12102" />
        <path
           d="M 71.425781,-0.078125 71.25,0.1171875 Q 69.296875,0 65.214844,0 61.152344,0 59.199219,0.1171875 L 59.023437,-0.078125 v -1.3085937 l 0.195313,-0.1953125 q 1.992187,-0.1171875 2.285156,-0.1953125 0.566406,-0.15625 0.664063,-0.7226563 0.253906,-1.40625 0.253906,-6.0546875 V -18.886719 q 0,-4.648437 -0.253906,-6.054687 -0.09766,-0.566406 -0.664063,-0.722656 -0.292969,-0.07813 -2.285156,-0.195313 l -0.195313,-0.195312 v -1.328125 l 0.195313,-0.175782 q 1.875,0.117188 6.015625,0.117188 4.121094,0 5.996094,-0.117188 l 0.195312,0.175782 v 1.328125 l -0.195312,0.195312 q -1.992188,0.117188 -2.285157,0.195313 -0.566406,0.15625 -0.664062,0.722656 -0.253906,1.40625 -0.253906,6.054687 v 10.3320315 q 0,4.6484375 0.253906,6.0546875 0.09766,0.5664063 0.664062,0.7226563 0.292969,0.078125 2.285157,0.1953125 l 0.195312,0.1953125 z m -6.210937,-28.59375 z m 0,30.1953125 z"
           id="path12104" />
        <path
           d="m 111.60156,-0.078125 -0.19531,0.1953125 Q 109.47266,0 105.39063,0 101.21094,0 99.375,0.1171875 L 99.199219,-0.05859375 V -1.3867187 l 0.195312,-0.1953125 q 1.992189,-0.1171875 2.285159,-0.1953125 0.5664,-0.15625 0.66406,-0.7226563 0.25391,-1.40625 0.25391,-6.0546875 V -21.757812 l -4.355473,8.925781 q -0.371093,0.742187 -2.539062,5.4687498 L 92.128906,0.44921875 H 90.820312 Q 89.804687,-1.9726562 88.066406,-5.6640625 l -2.734375,-5.8007815 -5.117187,-10.644531 v 13.5546875 q 0,4.6484375 0.253906,6.0546875 0.09766,0.5664063 0.664062,0.7226563 0.292969,0.078125 2.285157,0.1953125 l 0.195312,0.1953125 v 1.32812495 L 83.417969,0.1171875 Q 81.171875,0 79.238281,0 76.992187,0 74.726562,0.1171875 L 74.53125,-0.05859375 V -1.3867187 l 0.195312,-0.1953125 q 1.992188,-0.1171875 2.285157,-0.1953125 0.566406,-0.15625 0.664062,-0.7226563 0.253906,-1.40625 0.253906,-6.0546875 V -18.886719 q 0,-4.648437 -0.253906,-6.054687 -0.09766,-0.566406 -0.664062,-0.722656 -0.292969,-0.07813 -2.285157,-0.195313 l -0.195312,-0.195312 v -1.328125 l 0.195312,-0.175782 q 2.03125,0.117188 5.136719,0.117188 2.382813,0 4.160156,-0.117188 0.644532,1.484375 1.835938,4.179688 l 1.25,2.695312 6.210937,12.9882815 2.988282,-6.0546875 4.667966,-9.980469 q 0.82032,-1.777343 1.60157,-3.828125 2.20703,0.117188 2.96875,0.117188 3.82812,0 5.85937,-0.117188 l 0.19531,0.175782 v 1.347656 l -0.19531,0.175781 q -1.99219,0.117188 -2.28516,0.195313 -0.5664,0.15625 -0.66406,0.722656 -0.2539,1.40625 -0.2539,6.054687 v 10.3320315 q 0,4.6484375 0.2539,6.0546875 0.0977,0.5664063 0.66406,0.7226563 0.29297,0.078125 2.28516,0.1953125 l 0.19531,0.1953125 z"
           id="path12106" />
        <path
           d="m 135.35156,-9.0234375 q 0,3.2226563 -1.83594,5.6835937 -1.60156,2.1679688 -4.19921,3.2226563 -2.38282,0.9765625 -5.6836,0.9765625 -4.10156,0 -8.04687,-1.875 l -0.23438,-0.4296875 q 0.54688,-2.2460938 0.54688,-6.3867187 l 0.19531,-0.1953126 h 1.25 l 0.17578,0.1953126 v 0.4492187 q 0,1.09375 0.23438,2.890625 0.70312,1.25 2.51953,2.1484375 1.89453,0.9375 3.94531,0.9375 3.86719,0 5.35156,-2.6953125 0.76172,-1.3867187 0.76172,-2.8710937 0,-2.5000001 -2.08984,-3.5742188 -1.03516,-0.527344 -3.33985,-0.878906 -5.21484,-0.800782 -6.85546,-2.011719 -2.48047,-1.835938 -2.48047,-5.683594 0,-4.003906 2.69531,-6.386718 2.85156,-2.5 7.92969,-2.5 4.57031,0 7.38281,1.464843 l 0.13672,0.46875 q -0.46875,2.324219 -0.56641,5.585938 l -0.21484,0.195312 h -1.23047 l -0.19531,-0.195312 q -0.0586,-2.34375 -0.19532,-3.046875 -0.60547,-0.917969 -2.10937,-1.5625 -1.60156,-0.664063 -3.33984,-0.664063 -2.61719,0 -4.14063,1.386719 -1.42578,1.308594 -1.42578,3.378906 0,2.246094 1.62109,3.300782 1.05469,0.683593 4.98047,1.308593 0.41016,0.05859 2.28516,0.390625 1.15234,0.195313 2.1289,0.566406 1.97266,0.742188 2.96875,2.265625 1.07422,1.660157 1.07422,4.1406255 z"
           id="path12108" />
        <path
           d="m 168.92578,-14.433594 q 0,7.2070315 -4.19922,11.308594 -4.08203,3.984375 -11.15234,3.984375 -6.67969,0 -10.48828,-3.75 -3.8086,-3.7695312 -3.8086,-10.46875 0,-9.394531 7.16797,-13.007812 3.26172,-1.640625 8.02735,-1.640625 6.8164,0 10.60546,3.574218 3.84766,3.632813 3.84766,10 z m -6.01562,1.015625 q 0,-5.664062 -2.28516,-8.984375 -2.26563,-3.339843 -6.66016,-3.339843 -5.80078,0 -7.69531,5.214843 -0.97656,2.675782 -0.97656,5.996094 0,6.0351562 2.22656,9.53125 2.30469,3.6132813 6.89453,3.6132813 5.56641,0 7.48047,-5.4882813 1.01563,-2.9101563 1.01563,-6.542969 z m -8.92579,14.9414065 z m 0,-30.1953125 z"
           id="path12110" />
        <path
           d="m 202.79297,-26.054687 -0.21485,0.195312 q -1.99218,0.117188 -2.28515,0.195313 -0.56641,0.15625 -0.66406,0.722656 -0.25391,1.40625 -0.25391,6.054687 v 7.929688 q 0,8.769531 0.25391,11.425781 L 199.375,0.64453125 Q 197.16797,0.2734375 196.03516,0.1171875 190.80078,-5.7617187 178.16406,-21.328125 v 12.7734375 q 0,4.6484375 0.25391,6.0546875 0.0977,0.5664063 0.66406,0.7226563 0.29297,0.078125 2.28516,0.1953125 l 0.19531,0.1953125 v 1.32812495 L 181.36719,0.1171875 Q 179.12109,0 177.1875,0 q -2.24609,0 -4.51172,0.1171875 l -0.19531,-0.17578125 V -1.3867187 l 0.19531,-0.1953125 q 1.99219,-0.1171875 2.28516,-0.1953125 0.5664,-0.15625 0.66406,-0.7226563 0.25391,-1.40625 0.25391,-6.0546875 V -18.886719 q 0,-4.648437 -0.25391,-6.054687 -0.0977,-0.566406 -0.66406,-0.722656 -0.29297,-0.07813 -2.28516,-0.195313 l -0.19531,-0.195312 v -1.328125 l 0.19531,-0.175782 q 1.85547,0.117188 3.53516,0.117188 2.63672,0 4.375,-0.117188 7.03125,9.375 16.52343,20.0976565 V -18.886719 q 0,-4.648437 -0.2539,-6.054687 -0.0977,-0.566406 -0.66406,-0.722656 -0.29297,-0.07813 -2.28516,-0.195313 l -0.19531,-0.195312 v -1.328125 l 0.19531,-0.175782 q 2.1875,0.117188 4.16016,0.117188 2.51953,0 4.53125,-0.117188 l 0.19531,0.175782 z"
           id="path12112" />
      </g>
      <g
         aria-label="GR   UNDS"
         transform="translate(754.629,311.422)"
         id="g12132"
         style="font-weight:700;font-size:40px;font-family:PalatinoLinotype-Bold, 'Palatino Linotype';fill:#dc3022">
        <path
           d="m 31.40625,-9.8632813 -0.195313,0.2148438 Q 30,-9.3554688 29.804687,-8.828125 q -0.195312,0.5078125 -0.195312,3.9453125 0,1.6601562 0.15625,3.28125 -6.523438,2.4609375 -11.835938,2.4609375 -6.992187,0 -11.3281245,-3.90625 -4.3164062,-3.9257812 -4.3164062,-10.683594 0,-8.808593 7.6367187,-12.558593 3.496094,-1.71875 8.886719,-1.71875 3.125,0 6.328125,0.683593 2.636718,0.566407 4.160156,1.289063 l 0.175781,0.351562 q -0.507812,1.71875 -0.839844,5.976563 l -0.214843,0.195312 h -1.171875 l -0.195313,-0.195312 q 0,-0.371094 -0.07813,-1.523438 -0.07813,-1.171875 -0.195312,-1.640625 -0.859375,-1.171875 -2.929688,-1.992187 -2.226562,-0.859375 -4.804687,-0.859375 -6.914063,0 -9.5507815,5.585937 -1.2109375,2.578125 -1.2109375,5.976563 0,5.4296872 2.890625,9.003906 3.007813,3.7109375 7.832031,3.7109375 2.558594,0 4.941406,-1.09375 0.136719,-1.3671875 0.136719,-3.75 0,-1.9335938 -0.136719,-2.34375 -0.117187,-0.3125 -0.742187,-0.4492188 Q 22.675781,-9.1992188 19.902344,-9.375 L 19.6875,-9.5703125 v -1.2304685 l 0.214844,-0.195313 q 2.832031,0.07813 5.9375,0.05859 1.796875,-0.01953 5.371093,-0.05859 l 0.195313,0.195313 z"
           id="path12116" />
        <path
           d="m 61.308594,-0.078125 -0.1875,0.0234375 c -0.09115,0 -0.369792,0.02473958 -0.773438,0.01171875 C 58.563802,-0.10807292 57.473958,0 57.03125,0 56.367187,0 55.3125,0.0390625 53.867187,0.1171875 53.8151,-0.1953125 53.567705,-0.71614583 53.125,-1.4453125 L 48.28125,-9.53125 46.113281,-12.832031 c -0.273437,-0.403646 -0.657552,-0.800782 -1.152344,-1.191407 l 0.214844,-0.664062 c 0.299479,0.01302 0.520834,0.01953 0.664063,0.01953 1.276041,0 2.278645,-0.201823 3.007812,-0.605469 0.664063,-0.364583 1.276042,-1.002604 1.835938,-1.914062 0.559895,-0.911458 0.839843,-1.998698 0.839843,-3.261719 0,-2.200521 -0.820312,-3.684896 -2.460937,-4.453125 -0.78125,-0.364583 -1.920573,-0.546875 -3.417969,-0.546875 -0.651041,0 -1.276041,0.05208 -1.875,0.15625 -0.130208,1.276042 -0.195312,3.450521 -0.195312,6.523438 v 10.2148435 c 0,3.0989583 0.08463,5.1171875 0.253906,6.0546875 0.06511,0.3776042 0.286461,0.6184896 0.664062,0.7226563 0.195313,0.052083 0.957032,0.1171875 2.285157,0.1953125 l 0.195312,0.1953125 V -0.078125 L 46.796875,0.1171875 C 45.494792,0.0390625 43.489583,0 40.78125,0 37.981771,0 35.976562,0.0390625 34.765625,0.1171875 L 34.570312,-0.05859375 V -1.3867187 l 0.195313,-0.1953125 c 1.328125,-0.078125 2.089843,-0.1432292 2.285156,-0.1953125 C 37.428385,-1.8815104 37.649739,-2.1223958 37.714844,-2.5 37.884115,-3.4375 37.96875,-5.4557292 37.96875,-8.5546875 V -18.886719 c 0,-3.098958 -0.08463,-5.117187 -0.253906,-6.054687 -0.06511,-0.377604 -0.286461,-0.618489 -0.664063,-0.722656 -0.195313,-0.05209 -0.957031,-0.117191 -2.285156,-0.195313 l -0.195313,-0.195312 v -1.328125 l 0.195313,-0.175782 c 1.276041,0.07813 3.28125,0.117188 6.015625,0.117188 1.588541,0 2.877604,-0.01953 3.867187,-0.05859 1.966146,-0.07813 3.4375,-0.117187 4.414063,-0.117187 2.252604,0 3.90625,0.201823 4.960937,0.605468 1.419271,0.546875 2.369792,1.471355 2.851563,2.773438 0.234375,0.638021 0.351562,1.393229 0.351562,2.265625 0,3.541667 -1.992187,6.054687 -5.976562,7.539062 0.651041,1.09375 1.341145,2.200521 2.070312,3.320313 l 3.007813,4.628906 c 1.770833,2.734375 2.671875,3.8177083 3.257812,4.1953125 0.29948,0.1953125 0.716146,0.2929687 1.25,0.2929687 l 0.195313,0.1953125 z"
           id="path12118"
           sodipodi:nodetypes="cccsccccccscsscscssccccccsccccccssccccccscsccsccccccc" />
        <path
           d="m 121.95313,-26.054687 -0.19532,0.195312 c -1.53645,0 -2.40234,0.410156 -2.59765,1.230469 -0.10417,0.455729 -0.18229,1.445313 -0.23438,2.96875 -0.0391,1.132813 -0.0586,2.766927 -0.0586,4.902344 v 6.015624 c 0,3.8671879 -0.76172,6.6276047 -2.28516,8.2812505 -2.01823,2.1875 -4.89583,3.28125 -8.63281,3.28125 -3.41146,0 -6.07422,-0.56640625 -7.988283,-1.69921875 -1.614583,-0.96354165 -2.669271,-2.33072915 -3.164062,-4.10156245 -0.3125,-1.1328125 -0.46875,-4.0885416 -0.46875,-8.8671873 v -5.039063 c 0,-3.098958 -0.0043,-3.751005 -0.173542,-4.688505 -0.06511,-0.377604 -0.286461,-0.618489 -0.664063,-0.722656 -0.195313,-0.05209 -0.949219,-0.12891 -2.277343,-0.207032 l -0.203126,-0.183593 -0.08036,-2.674776 0.195323,-0.0625 c 1.25,0.07813 3.255208,-0.01563 6.015625,-0.01563 2.812501,0 4.811201,-0.03906 5.996091,-0.117188 l 0.19531,0.195313 v 1.308594 l -0.19531,0.195312 c -1.32813,0.07813 -2.08985,0.14323 -2.28516,0.195313 -0.3776,0.104167 -0.59895,0.345052 -0.66406,0.722656 -0.16927,0.9375 -0.25391,2.955729 -0.25391,6.054687 v 4.023438 c 0,4.9218749 0.22136,7.9361977 0.66407,9.0429685 0.88541,2.1875 3.0664,3.28125 6.54297,3.28125 2.27864,0 4.05598,-0.5598958 5.33203,-1.6796875 0.59895,-0.5338541 1.01562,-1.0742187 1.25,-1.6210937 0.23437,-0.546875 0.41666,-1.3932292 0.54687,-2.5390626 0.11719,-1.0677083 0.17578,-2.1484377 0.17578,-3.2421877 v -4.0625 c 0,-3.411458 -0.013,-5.742187 -0.0391,-6.992187 -0.0261,-1.171875 -0.10419,-1.933594 -0.23437,-2.285156 -0.10417,-0.260417 -0.33203,-0.46224 -0.6836,-0.605469 -0.29948,-0.117187 -1.10026,-0.214844 -2.40234,-0.292969 l -0.19531,-0.195312 v -1.308594 l 0.19531,-0.195313 c 1.13281,0.07813 2.29818,0.117188 3.49609,0.117188 0.89844,0 2.6237,-0.03906 5.17578,-0.117188 l 0.19532,0.195313 z"
           id="path12120"
           sodipodi:nodetypes="ccccsscsccssccccccsccccccsscscscsscccccccsccc" />
        <path
           d="m 155.01953,-26.054687 -0.21484,0.195312 q -1.99219,0.117188 -2.28516,0.195313 -0.56641,0.15625 -0.66406,0.722656 -0.25391,1.40625 -0.25391,6.054687 v 7.929688 q 0,8.769531 0.25391,11.425781 l -0.25391,0.17578125 Q 149.39453,0.2734375 148.26172,0.1171875 143.02734,-5.7617187 130.39062,-21.328125 v 12.7734375 q 0,4.6484375 0.25391,6.0546875 0.0977,0.5664063 0.66406,0.7226563 0.29297,0.078125 2.28516,0.1953125 l 0.19531,0.1953125 v 1.32812495 L 133.59375,0.1171875 Q 131.34766,0 129.41406,0 q -2.24609,0 -4.51172,0.1171875 l -0.19531,-0.17578125 V -1.3867187 l 0.19531,-0.1953125 q 1.99219,-0.1171875 2.28516,-0.1953125 0.56641,-0.15625 0.66406,-0.7226563 0.25391,-1.40625 0.25391,-6.0546875 V -18.886719 q 0,-4.648437 -0.25391,-6.054687 -0.0977,-0.566406 -0.66406,-0.722656 -0.29297,-0.07813 -2.28516,-0.195313 l -0.19531,-0.195312 v -1.328125 l 0.19531,-0.175782 q 1.85547,0.117188 3.53516,0.117188 2.63672,0 4.375,-0.117188 7.03125,9.375 16.52344,20.0976565 V -18.886719 q 0,-4.648437 -0.25391,-6.054687 -0.0977,-0.566406 -0.66406,-0.722656 -0.29297,-0.07813 -2.28516,-0.195313 l -0.19531,-0.195312 v -1.328125 l 0.19531,-0.175782 q 2.1875,0.117188 4.16016,0.117188 2.51953,0 4.53125,-0.117188 l 0.19531,0.175782 z"
           id="path12122" />
        <path
           d="m 187.71484,-15.351563 q 0,6.6210942 -4.3164,10.976563 -2.10938,2.1289062 -5.11719,3.3007813 -3.22266,1.2695312 -7.51953,1.1914062 L 163.86719,0 q -2.8125,-0.0390625 -4.64844,0.1171875 L 159.02344,-0.078125 V -0.625 l 0.0977,-0.234375 q 1.44532,-0.9179687 1.5625,-1.1523438 0.17578,-0.3515625 0.21485,-2.5976562 l 0.0586,-4.375 v -9.902344 q 0,-4.648437 -0.25391,-6.054687 -0.0977,-0.566406 -0.66406,-0.722656 -0.29297,-0.07813 -2.28515,-0.195313 l -0.19532,-0.195312 v -1.328125 l 0.19532,-0.175782 q 2.07031,0.117188 3.94531,0.117188 4.55078,0 8.20312,-0.117188 1.81641,-0.05859 3.65235,-0.05859 5.07812,0 7.79297,1.152343 2.96875,1.269532 4.64843,3.984375 1.71875,2.792969 1.71875,7.128906 z m -5.99609,0.9375 q 0,-5.410156 -2.61719,-8.320312 -1.36719,-1.523437 -3.41797,-2.148437 -1.95312,-0.585938 -5.44922,-0.585938 -1.8164,0 -3.47656,0.253906 -0.19531,2.1875 -0.19531,10.585938 l 0.0391,8.535156 q 0.0195,2.8515625 0.15625,3.7890625 1.71875,0.2734375 3.51563,0.2734375 3.88672,0 6.13281,-1.1328125 2.42187,-1.2304687 3.84766,-4.1796875 1.46484,-3.046875 1.46484,-7.070313 z"
           id="path12124" />
        <path
           d="m 211.89453,-9.0234375 q 0,3.2226563 -1.83594,5.6835937 -1.60156,2.1679688 -4.19922,3.2226563 -2.38281,0.9765625 -5.68359,0.9765625 -4.10156,0 -8.04687,-1.875 l -0.23438,-0.4296875 q 0.54688,-2.2460938 0.54688,-6.3867187 l 0.19531,-0.1953126 h 1.25 l 0.17578,0.1953126 v 0.4492187 q 0,1.09375 0.23437,2.890625 0.70313,1.25 2.51954,2.1484375 1.89453,0.9375 3.94531,0.9375 3.86719,0 5.35156,-2.6953125 0.76172,-1.3867187 0.76172,-2.8710937 0,-2.5000001 -2.08984,-3.5742188 -1.03516,-0.527344 -3.33985,-0.878906 -5.21484,-0.800782 -6.85547,-2.011719 -2.48047,-1.835938 -2.48047,-5.683594 0,-4.003906 2.69532,-6.386718 2.85156,-2.5 7.92968,-2.5 4.57032,0 7.38282,1.464843 l 0.13672,0.46875 q -0.46875,2.324219 -0.56641,5.585938 l -0.21484,0.195312 h -1.23047 l -0.19532,-0.195312 q -0.0586,-2.34375 -0.19531,-3.046875 -0.60547,-0.917969 -2.10937,-1.5625 -1.60157,-0.664063 -3.33985,-0.664063 -2.61718,0 -4.14062,1.386719 -1.42578,1.308594 -1.42578,3.378906 0,2.246094 1.62109,3.300782 1.05469,0.683593 4.98047,1.308593 0.41016,0.05859 2.28516,0.390625 1.15234,0.195313 2.1289,0.566406 1.97266,0.742188 2.96875,2.265625 1.07422,1.660157 1.07422,4.1406255 z"
           id="path12126" />
        <path
           id="path12128"
           d="m 451,670.95703 -0.19531,0.19531 v 1.3086 L 451,672.65625 c 1.32813,0.0781 2.08985,0.14323 2.28516,0.19531 0.3776,0.10417 0.59895,0.34505 0.66406,0.72266 0.16927,0.9375 0.2539,2.95573 0.2539,6.05469 v 4.02343 c 0,1.73158 0.14468,3.22892 0.0899,4.48829 l 3.85547,-0.0156 c 0.0227,-1.02361 0.0351,-2.16823 0.0351,-3.45703 v -5.03906 c 0,-3.09896 0.005,-3.75196 0.17383,-4.68946 0.0651,-0.3776 0.31771,-0.65364 0.69531,-0.75781 0.19532,-0.0521 0.84766,-0.11719 2.25782,-0.16016 l 0.1914,-0.19531 0.0801,-2.67383 -0.19531,-0.0625 c -1.25,0.0781 -3.25912,-0.0547 -6.01954,-0.0547 -2.8125,0 -3.18229,-4e-5 -4.36718,-0.0781 z"
           transform="translate(-389.20785,-698.53418)"
           sodipodi:nodetypes="ccccccssccssccccccscc" />
        <path
           id="path12130"
           d="m 451,670.95703 -0.19531,0.19531 v 1.3086 L 451,672.65625 c 1.32813,0.0781 2.08985,0.14323 2.28516,0.19531 0.3776,0.10417 0.59895,0.34505 0.66406,0.72266 0.16927,0.9375 0.2539,2.95573 0.2539,6.05469 v 4.02343 c 0,0.1443 0.002,0.28474 0.004,0.42578 v 1.53516 c -7.3e-4,0.0156 -0.004,0.0314 -0.004,0.0469 v 4.02343 c 0,3.09896 -0.0846,5.11719 -0.2539,6.05469 -0.0651,0.37761 -0.28646,0.61849 -0.66406,0.72266 -0.0813,0.0217 -0.28485,0.0461 -0.5625,0.0723 h -8.51563 v 2 h 37.82031 l 0.17969,-0.17382 v -1.66797 l -0.16797,-0.15821 h -21.13672 c -1.10753,-0.0422 -1.67595,-0.0982 -1.84961,-0.14453 -0.3776,-0.10417 -0.63021,-0.38021 -0.69531,-0.75781 -0.0844,-0.46875 -0.12804,-1.17985 -0.15039,-2.16211 v -16.99414 c 0.0224,-0.66781 0.066,-1.06641 0.15039,-1.53516 0.0651,-0.3776 0.31771,-0.65364 0.69531,-0.75781 0.17905,-0.0478 0.77239,-0.10589 1.95118,-0.14844 h 26.66406 0.041 c 0.0372,-0.97734 0.0133,-2.01381 -0.0332,-2.93359 l -32.30859,-0.0644 c -2.8125,0 -3.1823,-7e-5 -4.36719,-0.0781 z"
           transform="translate(-389.20785,-698.53418)" />
      </g>
      <path
         id="path12134"
         transform="translate(545.629,318.895)"
         style="fill:none"
         d="M 0,0 H 419" />
      <path
         id="path12136"
         style="fill:url(#radialGradient12146);stroke-width:0.99815"
         d="m 547.4524,318.422 h 418.94223 v 2 H 547.4524 Z" />
      <path
         id="path12138"
         style="fill:#f8f8f9;fill-opacity:1;stroke-width:0.99815"
         d="m 547.4524,322.422 h 418.94223 v 2 H 547.4524 Z" />
      <path
         style="color:#000000;fill:#dc3022;-inkscape-stroke:none"
         d="M -1,-0.421875 V 79 H 1 V -0.421875 Z"
         id="path12140"
         transform="translate(835.629,257.922)" />
      <path
         style="color:#000000;fill:#dc3022;-inkscape-stroke:none"
         d="M -3,0 V 79.421875 H 3 V 0 Z"
         id="path12142"
         transform="translate(841.629,257.5)" />
    </g>
  </g>
</svg>
